<?xml version="1.0" encoding="UTF-8"?>
<svg id="Layer_2" data-name="Layer 2" xmlns="http://www.w3.org/2000/svg" viewBox="0 0 102.44 102.44">
  <defs>
    <style>
      .cls-1 {
        fill-rule: evenodd;
      }

      .cls-1, .cls-2 {
        fill: #fff;
      }

      .cls-3 {
        fill: #1e1b48;
      }
    </style>
  </defs>
  <g id="Layer_1-2" data-name="Layer 1">
    <circle class="cls-3" cx="51.22" cy="51.22" r="51.22"/>
    <g id="Page-1">
      <g id="_025---AI" data-name="025---AI">
        <path id="Shape" class="cls-2" d="M41.56,58.5c.25.11.54.11.79,0s.45-.3.56-.56l1.46-3.5h5.51l1.46,3.5c.22.53.82.78,1.35.56.53-.22.78-.82.56-1.35l-5.16-12.39c-.16-.38-.54-.64-.95-.64s-.79.25-.95.64l-5.16,12.39c-.11.25-.11.54,0,.79s.3.45.56.56h0ZM47.12,47.84l1.89,4.54h-3.79l1.89-4.54Z"/>
        <path id="Path" class="cls-1" d="M55.39,56.51c-.57,0-1.03.46-1.03,1.03s.46,1.03,1.03,1.03h6.2c.57,0,1.03-.46,1.03-1.03s-.46-1.03-1.03-1.03h-2.07v-10.33h2.07c.57,0,1.03-.46,1.03-1.03s-.46-1.03-1.03-1.03h-6.2c-.57,0-1.03.46-1.03,1.03s.46,1.03,1.03,1.03h2.07v10.33h-2.07Z"/>
        <path id="Shape-2" data-name="Shape" class="cls-2" d="M22.34,65.81c0,2.28,1.85,4.13,4.13,4.13.52,0,1.03-.1,1.51-.3,2.44,1.87,5.89,2.84,10.12,2.84.64,0,1.3-.03,1.97-.07,3,6.13,7.33,9.92,12.21,9.92s9.22-3.79,12.22-9.91c.67.04,1.34.07,1.97.07,4.23,0,7.68-.97,10.12-2.84.48.19.99.29,1.51.29,1.82,0,3.43-1.21,3.95-2.95.52-1.75-.17-3.63-1.69-4.63.14-3.33-1.14-7.1-3.76-11.01,2.62-3.91,3.9-7.68,3.76-11.01,1.79-1.15,2.4-3.47,1.42-5.36s-3.23-2.72-5.2-1.93c-2.81-2.15-6.95-3.1-12.08-2.76-3-6.13-7.33-9.93-12.22-9.93s-9.22,3.79-12.22,9.93c-5.13-.33-9.27.62-12.08,2.76-1.97-.79-4.22.05-5.19,1.93-.98,1.88-.36,4.2,1.42,5.36-.14,3.32,1.14,7.1,3.76,11.01-2.62,3.91-3.9,7.68-3.76,11.01-1.17.76-1.87,2.06-1.87,3.45h0ZM24.4,65.81c0-1.14.92-2.07,2.07-2.07s2.07.92,2.07,2.07-.92,2.07-2.07,2.07c-.55,0-1.07-.22-1.46-.6s-.6-.91-.6-1.46ZM41.35,32.47c2.75.33,5.46.94,8.08,1.81-1.85.83-3.65,1.74-5.41,2.75-1.76,1.02-3.47,2.13-5.11,3.32.54-2.71,1.36-5.35,2.43-7.89ZM65.66,40.36c-1.64-1.2-3.35-2.31-5.11-3.32-1.75-1.01-3.55-1.93-5.4-2.75,2.62-.88,5.33-1.48,8.08-1.81,1.08,2.54,1.89,5.18,2.43,7.89ZM63.23,70.23c-2.75-.33-5.46-.94-8.08-1.81,1.85-.83,3.65-1.74,5.41-2.75,1.76-1.02,3.47-2.13,5.11-3.32-.54,2.71-1.36,5.35-2.43,7.89ZM59.52,38.83c2.33,1.34,4.56,2.85,6.66,4.52.38,2.65.57,5.32.57,8,0,2.68-.19,5.35-.57,8-2.11,1.67-4.33,3.18-6.66,4.52-2.32,1.34-4.74,2.52-7.23,3.51-2.49-.99-4.91-2.17-7.23-3.51-2.33-1.34-4.56-2.85-6.66-4.52-.76-5.31-.76-10.69,0-16,2.11-1.67,4.33-3.18,6.66-4.52,2.32-1.34,4.74-2.52,7.24-3.51,2.49.99,4.9,2.17,7.22,3.51h0ZM68.5,45.3c2.06,1.82,3.93,3.85,5.58,6.05-1.65,2.2-3.52,4.23-5.58,6.05.2-2.01.3-4.03.3-6.05,0-2.02-.1-4.04-.3-6.05h0ZM36.07,57.4c-2.06-1.82-3.93-3.85-5.58-6.05,1.65-2.2,3.52-4.23,5.58-6.05-.41,4.02-.41,8.08,0,12.1h0ZM44.03,65.66c1.75,1.01,3.55,1.93,5.4,2.75-2.62.88-5.33,1.48-8.08,1.81-1.08-2.54-1.89-5.18-2.43-7.89,1.64,1.2,3.35,2.31,5.1,3.32h0ZM52.29,80.27c-3.88,0-7.4-3.08-10-8.07,3.42-.49,6.78-1.36,10-2.61,3.23,1.25,6.58,2.12,10.01,2.61-2.6,4.99-6.13,8.07-10.01,8.07ZM78.11,67.87c-1.14,0-2.07-.92-2.07-2.07s.92-2.07,2.07-2.07,2.07.92,2.07,2.07-.92,2.07-2.07,2.07ZM78.32,61.7c-.07,0-.14-.02-.22-.02-2.28,0-4.13,1.85-4.13,4.13,0,.92.32,1.82.9,2.54-2.25,1.48-5.53,2.19-9.47,2.04,1.28-3.2,2.19-6.53,2.7-9.94,2.67-2.15,5.09-4.6,7.21-7.3,1.74,2.53,2.78,5.48,3.01,8.55ZM80.17,36.89c0,1.14-.92,2.07-2.07,2.07s-2.07-.92-2.07-2.07.92-2.07,2.07-2.07,2.07.92,2.07,2.07ZM74.87,34.35c-.58.72-.89,1.62-.9,2.54,0,2.28,1.85,4.13,4.13,4.13.07,0,.14-.02.22-.02-.22,3.07-1.26,6.02-3.01,8.55-2.12-2.7-4.54-5.15-7.21-7.3-.52-3.41-1.43-6.74-2.71-9.94,3.94-.15,7.22.55,9.47,2.04h0ZM52.29,22.43c3.88,0,7.4,3.08,10,8.07-3.42.49-6.78,1.36-10,2.61-3.23-1.25-6.58-2.12-10.01-2.61,2.6-4.99,6.12-8.07,10-8.07h0ZM26.47,34.83c1.14,0,2.07.92,2.07,2.07s-.92,2.07-2.07,2.07-2.07-.92-2.07-2.07.92-2.07,2.07-2.07ZM26.25,41c.07,0,.14.02.22.02,2.28,0,4.13-1.85,4.13-4.13,0-.92-.32-1.82-.9-2.54,2.25-1.48,5.53-2.19,9.47-2.04-1.28,3.2-2.19,6.53-2.7,9.94-2.67,2.15-5.09,4.6-7.21,7.3-1.74-2.53-2.78-5.48-3.01-8.55ZM29.26,53.15c2.12,2.7,4.54,5.15,7.21,7.3.52,3.41,1.43,6.74,2.71,9.94-3.93.15-7.22-.56-9.47-2.04.58-.72.89-1.62.89-2.54,0-2.28-1.85-4.13-4.13-4.13-.07,0-.14.02-.22.02.22-3.07,1.26-6.02,3.01-8.55Z"/>
      </g>
    </g>
  </g>
</svg>