<?xml version="1.0" encoding="UTF-8"?>
<svg id="Layer_2" data-name="Layer 2" xmlns="http://www.w3.org/2000/svg" viewBox="0 0 132.25 154.91">
  <defs>
    <style>
      .cls-1 {
        font-size: 28.2px;
        letter-spacing: .36em;
      }

      .cls-1, .cls-2, .cls-3 {
        fill: #666;
      }

      .cls-1, .cls-3 {
        font-family: SinhalaMN, 'Sinhala MN';
      }

      .cls-3 {
        font-size: 8.62px;
        letter-spacing: .51em;
      }
    </style>
  </defs>
  <g id="Layer_1-2" data-name="Layer 1">
    <g>
      <path class="cls-2" d="M84.76,17.13l-15.24,63.85-.56-.07,1.55-78.25c.05-2.73,3.66-3.67,5.04-1.31l9.21,15.79ZM90.49,26.93l-16.98,55.36.81.34,23.29-43.51-7.12-12.19ZM101.99,46.64l-24.19,38.38c.29.24.57.5.85.76l28.76-29.86-5.42-9.28ZM110.77,61.68l-29.51,27.15c.2.29.39.58.57.88l33.54-20.15-4.6-7.88ZM118.74,75.33l-35.02,18.53.3.74,39.2-11.59-4.48-7.68ZM126.52,88.66l-41.24,9.82h46.97l-5.73-9.82ZM47.49,17.13l15.23,63.81.57-.07-1.55-78.21c-.05-2.73-3.66-3.67-5.04-1.31l-9.21,15.79ZM34.65,39.13l23.29,43.51.81-.34-16.98-55.36-7.12,12.19ZM24.85,55.92l28.76,29.86c.27-.26.56-.51.85-.76l-24.19-38.38-5.42,9.28ZM16.89,69.56l33.54,20.15c.18-.3.37-.59.57-.88l-29.51-27.15-4.6,7.88ZM9.03,83.01l39.28,11.61.3-.72-35.09-18.57-4.48,7.68ZM0,98.48h46.97s-41.24-9.82-41.24-9.82l-5.73,9.82Z"/>
      <text class="cls-1" transform="translate(.53 139.06)"><tspan x="0" y="0">AXARA</tspan></text>
      <text class="cls-3" transform="translate(8.19 152.84)"><tspan x="0" y="0">TECHNOLOGIES</tspan></text>
    </g>
  </g>
</svg>