<?xml version="1.0" encoding="UTF-8"?>
<svg id="Layer_2" data-name="Layer 2" xmlns="http://www.w3.org/2000/svg" viewBox="0 0 143.53 168.67">
  <defs>
    <style>
      .cls-1 {
        fill: #fff;
      }
    </style>
  </defs>
  <g id="Layer_1-2" data-name="Layer 1">
    <g id="uuid-2064ced2-0db4-4190-bf93-7ecf3309cf68" data-name="Layer 1-2">
      <g>
        <g>
          <path class="cls-1" d="M23.68,136.08c-1.57-1.91-3.49-2.86-5.78-2.86-1.02,0-1.94.18-2.81.55s-1.6.87-2.21,1.5-1.11,1.39-1.47,2.26-.53,1.81-.53,2.83.18,1.99.53,2.86c.36.87.86,1.63,1.49,2.28s1.37,1.15,2.23,1.52,1.76.55,2.76.55c2.16,0,4.1-.92,5.82-2.76v7.98l-.69.24c-1.03.37-2,.63-2.89.81s-1.78.26-2.65.26c-1.79,0-3.51-.34-5.15-1.02s-3.09-1.63-4.35-2.86c-1.24-1.23-2.26-2.68-3.02-4.38-.76-1.68-1.13-3.52-1.13-5.53s.37-3.83,1.11-5.49,1.74-3.1,2.99-4.3c1.24-1.21,2.7-2.15,4.36-2.83,1.65-.68,3.39-1.02,5.2-1.02,1.03,0,2.05.11,3.05.32,1,.23,2.05.55,3.15,1.02,0,0,0,8.06,0,8.06Z"/>
          <path class="cls-1" d="M40.94,140.38c0-1.92.36-3.72,1.07-5.4.71-1.66,1.7-3.12,2.96-4.36s2.78-2.21,4.52-2.91c1.76-.69,3.68-1.05,5.8-1.05s4.02.36,5.78,1.05c1.76.69,3.3,1.66,4.56,2.91,1.28,1.24,2.26,2.7,2.97,4.36s1.07,3.46,1.07,5.4-.36,3.73-1.07,5.4-1.71,3.12-2.97,4.36c-1.28,1.24-2.79,2.21-4.56,2.91s-3.7,1.05-5.78,1.05-4.04-.36-5.8-1.05-3.26-1.66-4.52-2.91c-1.26-1.24-2.25-2.7-2.96-4.36s-1.07-3.46-1.07-5.4ZM48,140.38c0,1.03.19,1.99.58,2.86.39.87.92,1.63,1.58,2.28s1.44,1.15,2.33,1.5,1.83.53,2.81.53,1.92-.18,2.81-.53c.89-.36,1.66-.86,2.34-1.5.68-.65,1.21-1.41,1.6-2.28s.58-1.83.58-2.86-.19-1.99-.58-2.86c-.39-.87-.92-1.63-1.6-2.28s-1.45-1.15-2.34-1.5-1.83-.53-2.81-.53-1.92.18-2.81.53c-.89.36-1.66.86-2.33,1.5s-1.2,1.41-1.58,2.28-.58,1.83-.58,2.86Z"/>
          <path class="cls-1" d="M109.33,153.37h-8.4l-6.45-9.98v9.98h-6.75v-25.96h10.5c1.45,0,2.71.21,3.78.63,1.08.42,1.97,1,2.67,1.74.69.73,1.23,1.58,1.58,2.55s.53,2,.53,3.1c0,1.97-.48,3.57-1.42,4.8-.95,1.23-2.36,2.07-4.22,2.5l8.16,10.65.02-.02ZM94.48,139h1.28c1.32,0,2.36-.27,3.07-.82.71-.55,1.07-1.34,1.07-2.37s-.36-1.83-1.07-2.37c-.71-.55-1.73-.82-3.07-.82h-1.28v6.4Z"/>
          <path class="cls-1" d="M140.7,133.12h-8.03v4.35h7.58v5.72h-7.58v4.48h8.03v5.72h-14.77v-25.96h14.77v5.72-.02Z"/>
        </g>
        <g>
          <path class="cls-1" d="M3.25,159.89h3.8v1.02h-1.31v7.63h-1.15v-7.63h-1.34v-1.02Z"/>
          <path class="cls-1" d="M9.97,159.89h3.1v.99h-1.94v2.75h1.71v.99h-1.71v2.96h1.94v.99h-3.1v-8.66Z"/>
          <path class="cls-1" d="M19.84,160.04v1.05c-.29-.15-.55-.23-.74-.23-.27,0-.52.06-.71.21-.19.13-.36.34-.48.63s-.23.65-.29,1.08-.1.95-.1,1.55c0,2.13.55,3.2,1.65,3.2.19,0,.42-.06.69-.18v1.07c-.27.16-.6.24-.94.24-1.74,0-2.63-1.44-2.63-4.3,0-1.55.21-2.7.65-3.46.42-.76,1.08-1.13,1.97-1.13.32,0,.65.08.97.26h-.03Z"/>
          <path class="cls-1" d="M23.12,159.89h1.16v3.39h1.71v-3.39h1.16v8.66h-1.16v-4.28h-1.71v4.28h-1.16v-8.66Z"/>
          <path class="cls-1" d="M30.78,159.89h1.08l1.16,3.46c.34.97.63,2.02.89,3.12-.1-.66-.16-1.28-.21-1.81s-.06-1.05-.06-1.53v-3.23h1.18v8.66h-1.1l-1.31-3.89c-.11-.36-.23-.73-.34-1.11-.11-.39-.21-.78-.29-1.2,0-.05-.02-.11-.03-.19s-.03-.16-.06-.26c0,.1.02.18.03.24,0,.06,0,.13.02.18l.06.87.06,1.07v.52l.06,3.76h-1.15v-8.66.02Z"/>
          <path class="cls-1" d="M42.8,164.43c0,1.53-.18,2.62-.52,3.26s-.9.97-1.71.97-1.44-.34-1.78-1.03c-.34-.68-.52-1.87-.52-3.6,0-1.53.16-2.63.5-3.26.34-.65.92-.97,1.73-.97.73,0,1.26.24,1.62.74.23.34.4.81.5,1.42.1.57.16,1.41.16,2.49l.02-.02ZM41.57,164.56c0-1.5-.06-2.49-.19-2.99s-.4-.74-.82-.74-.69.23-.82.68-.19,1.37-.19,2.75c0,1.26.06,2.15.21,2.63.15.47.42.69.82.69s.66-.21.81-.65c.15-.44.23-1.23.23-2.37h-.03Z"/>
          <path class="cls-1" d="M46.24,159.89h1.16v7.67h1.91v.99h-3.07v-8.66Z"/>
          <path class="cls-1" d="M56.67,164.43c0,1.53-.18,2.62-.52,3.26s-.9.97-1.71.97-1.44-.34-1.78-1.03c-.34-.68-.52-1.87-.52-3.6,0-1.53.16-2.63.5-3.26.34-.65.92-.97,1.73-.97.73,0,1.26.24,1.62.74.23.34.4.81.5,1.42.1.57.16,1.41.16,2.49l.02-.02ZM55.45,164.56c0-1.5-.06-2.49-.19-2.99-.13-.5-.4-.74-.82-.74s-.69.23-.82.68c-.13.45-.19,1.37-.19,2.75,0,1.26.06,2.15.21,2.63.15.47.42.69.82.69s.66-.21.81-.65c.15-.44.23-1.23.23-2.37h-.03Z"/>
          <path class="cls-1" d="M62.2,164h2.12v.34c0,1.68-.15,2.83-.44,3.41-.29.6-.84.9-1.63.9s-1.42-.34-1.76-1c-.36-.68-.52-1.81-.52-3.39,0-1.81.19-3.02.57-3.62.36-.57.9-.84,1.65-.84.57,0,1.02.13,1.32.4.32.27.57.73.76,1.36l-1.08.45c-.05-.23-.1-.42-.16-.58-.06-.16-.13-.27-.19-.36-.15-.18-.36-.26-.65-.26-.39,0-.65.24-.79.71-.15.5-.21,1.41-.21,2.7s.08,2.2.23,2.67.42.69.82.69c.37,0,.63-.16.78-.5.15-.36.23-.92.23-1.7v-.4h-1.02v-.99h-.02Z"/>
          <path class="cls-1" d="M67.05,159.89h1.23l.57,1.89s.03.11.05.18.05.15.06.23c.21.68.36,1.24.44,1.71.06-.47.13-.79.16-.97l.18-.78.06-.31.48-1.95h1.21l-1.5,4.93v3.72h-1.16v-3.72l-1.81-4.93h.03Z"/>
          <path class="cls-1" d="M86.69,160.07v1.13c-.36-.26-.68-.39-.95-.39-.31,0-.55.11-.74.32s-.29.48-.29.82c0,.31.06.57.21.78.06.11.19.26.36.45.16.18.37.4.63.66.47.48.79.9.97,1.24.18.34.26.76.26,1.24,0,.66-.19,1.23-.57,1.65-.37.42-.86.63-1.45.63-.5,0-.92-.13-1.28-.4v-1.15c.42.31.79.45,1.13.45s.57-.11.74-.32.27-.5.27-.86c0-.31-.06-.6-.21-.84-.06-.11-.18-.26-.29-.42-.13-.16-.29-.32-.47-.52-.29-.29-.53-.55-.73-.78s-.34-.42-.44-.58c-.18-.32-.27-.74-.27-1.24,0-.68.18-1.21.53-1.62s.82-.6,1.42-.6c.42,0,.81.1,1.2.29l-.03.03Z"/>
          <path class="cls-1" d="M94.72,164.43c0,1.53-.18,2.62-.52,3.26s-.9.97-1.71.97-1.44-.34-1.78-1.03c-.34-.68-.52-1.87-.52-3.6,0-1.53.16-2.63.5-3.26.34-.65.92-.97,1.73-.97.73,0,1.26.24,1.62.74.23.34.4.81.5,1.42.1.57.16,1.41.16,2.49l.02-.02ZM93.49,164.56c0-1.5-.06-2.49-.19-2.99-.13-.5-.4-.74-.82-.74s-.69.23-.82.68c-.13.45-.19,1.37-.19,2.75,0,1.26.06,2.15.21,2.63.15.47.42.69.82.69s.66-.21.81-.65c.15-.44.23-1.23.23-2.37h-.03Z"/>
          <path class="cls-1" d="M98.16,159.89h1.16v7.67h1.91v.99h-3.07v-8.66Z"/>
          <path class="cls-1" d="M104.33,159.89h1.15v6.11c0,.63.05,1.03.16,1.24s.34.31.68.31.57-.1.68-.27.16-.55.16-1.11v-6.28h1.15v6.28c0,.94-.15,1.58-.44,1.91-.34.37-.87.57-1.57.57-.78,0-1.32-.24-1.65-.73-.23-.34-.32-.97-.32-1.92v-6.11.02Z"/>
          <path class="cls-1" d="M111.27,159.89h3.8v1.02h-1.31v7.63h-1.15v-7.63h-1.34v-1.02Z"/>
          <path class="cls-1" d="M118,159.89h1.16v8.66h-1.16v-8.66Z"/>
          <path class="cls-1" d="M127.13,164.43c0,1.53-.18,2.62-.52,3.26s-.9.97-1.71.97-1.44-.34-1.78-1.03c-.34-.68-.52-1.87-.52-3.6,0-1.53.16-2.63.5-3.26.34-.65.92-.97,1.73-.97.73,0,1.26.24,1.62.74.23.34.4.81.5,1.42.1.57.16,1.41.16,2.49l.02-.02ZM125.9,164.56c0-1.5-.06-2.49-.19-2.99s-.4-.74-.82-.74-.69.23-.82.68-.19,1.37-.19,2.75c0,1.26.06,2.15.21,2.63.15.47.42.69.82.69s.66-.21.81-.65c.15-.44.23-1.23.23-2.37h-.03Z"/>
          <path class="cls-1" d="M130.57,159.89h1.08l1.16,3.46c.34.97.63,2.02.89,3.12-.1-.66-.16-1.28-.21-1.81s-.06-1.05-.06-1.53v-3.23h1.18v8.66h-1.1l-1.31-3.89c-.11-.36-.23-.73-.34-1.11-.11-.39-.21-.78-.29-1.2,0-.05-.02-.11-.03-.19s-.03-.16-.06-.26c0,.1.02.18.03.24,0,.06,0,.13.02.18l.06.87.06,1.07v.52l.06,3.76h-1.15v-8.66.02Z"/>
          <path class="cls-1" d="M141.12,160.07v1.13c-.36-.26-.68-.39-.95-.39-.31,0-.55.11-.74.32s-.29.48-.29.82c0,.31.06.57.21.78.06.11.19.26.36.45.16.18.37.4.63.66.47.48.79.9.97,1.24s.26.76.26,1.24c0,.66-.19,1.23-.57,1.65-.37.42-.86.63-1.45.63-.5,0-.92-.13-1.28-.4v-1.15c.42.31.79.45,1.13.45s.57-.11.74-.32.27-.5.27-.86c0-.31-.06-.6-.21-.84-.06-.11-.18-.26-.29-.42-.13-.16-.29-.32-.47-.52-.29-.29-.53-.55-.73-.78s-.34-.42-.44-.58c-.18-.32-.27-.74-.27-1.24,0-.68.18-1.21.53-1.62s.82-.6,1.42-.6c.42,0,.81.1,1.2.29l-.03.03Z"/>
        </g>
        <g>
          <path class="cls-1" d="M56.46,64.07c-4.46,0-8.06-3.62-8.06-8.06h0c0-4.46,3.62-8.06,8.06-8.06h72.36c-3.31-9.29-12.18-15.93-22.6-15.93h-49.95c-13.25,0-24.01,10.74-24.01,24.01h0c0,13.25,10.74,24.01,24.01,24.01h49.95c10.42,0,19.29-6.66,22.6-15.93H56.46v-.03Z"/>
          <path class="cls-1" d="M55.88,96.01c-22.05,0-39.94-17.93-39.94-40.07h0c0-22.13,17.88-40.07,39.94-40.07h71.78c8.76-.02,15.87-7.11,15.87-15.88H55.82C24.99,0,0,25.07,0,56h0c0,30.92,24.99,56,55.82,56h87.71c0-8.84-7.16-15.99-15.99-15.99H55.88v.02Z"/>
        </g>
      </g>
    </g>
  </g>
</svg>