<?xml version="1.0" encoding="UTF-8"?>
<svg id="Layer_2" data-name="Layer 2" xmlns="http://www.w3.org/2000/svg" viewBox="0 0 102.44 102.44">
  <defs>
    <style>
      .cls-1 {
        fill: #fff;
      }

      .cls-2 {
        fill: #1e1b48;
      }
    </style>
  </defs>
  <g id="Layer_1-2" data-name="Layer 1">
    <circle class="cls-2" cx="51.22" cy="51.22" r="51.22"/>
    <g>
      <path class="cls-1" d="M80.55,67.16h-3.07c.24-.46.37-.98.37-1.53v-24.97c0-.51-.41-.92-.92-.92s-.92.41-.92.92v24.97c0,.85-.69,1.53-1.53,1.53H26.62c-.85,0-1.53-.69-1.53-1.53v-31.9c0-.85.69-1.53,1.53-1.53h24.42c-.32.56-.36,1.24-.12,1.84h-3.26s0,0,0,0h-1.67s0,0,0,0h-18.13c-.51,0-.92.41-.92.92v19.43c0,.51.41.92.92.92s.92-.41.92-.92v-18.51s15.11,0,15.11,0c-.13.5-.27,1.11-.33,1.59-.01.08-.06.15-.13.19l-1.54.89c-.07.04-.16.05-.23.02-.52-.21-1.27-.43-1.8-.58-.93-.26-1.91.14-2.39.98l-.83,1.44c-.48.83-.34,1.89.35,2.56.4.39.96.92,1.4,1.27.06.05.1.13.1.21v1.77c0,.08-.04.16-.1.21-.44.35-1.01.88-1.4,1.27-.69.68-.83,1.73-.35,2.56l.83,1.44c.48.83,1.47,1.23,2.39.98.53-.15,1.28-.37,1.8-.58.07-.03.16-.02.23.02l1.54.89c.07.04.12.11.13.19.08.56.26,1.31.4,1.84.24.93,1.08,1.58,2.05,1.58h1.67c.96,0,1.8-.65,2.04-1.58.14-.53.32-1.29.4-1.84.01-.08.06-.15.13-.19l1.54-.89c.07-.04.16-.05.23-.02.52.21,1.27.43,1.8.58.93.26,1.91-.14,2.39-.98l.83-1.44c.48-.83.34-1.89-.35-2.56-.4-.39-.96-.92-1.4-1.27-.06-.05-.1-.13-.1-.21v-1.77c0-.08.04-.16.1-.21.44-.35,1.01-.88,1.4-1.27.69-.68.83-1.73.35-2.56l-.83-1.44c-.48-.83-1.47-1.23-2.39-.98-.53.15-1.28.37-1.8.58-.07.03-.16.02-.23-.02l-1.54-.89c-.07-.04-.12-.11-.13-.19-.07-.47-.21-1.09-.33-1.59h2.21c.51.73,1.43,1.07,2.3.83.53-.15,1.28-.37,1.8-.58.07-.03.16-.02.23.02l1.54.89c.07.04.12.11.13.19.08.56.26,1.31.4,1.84.24.93,1.08,1.58,2.05,1.58h1.67c.96,0,1.8-.65,2.04-1.58.14-.53.32-1.29.4-1.84.01-.08.06-.15.13-.19l1.54-.89c.07-.04.16-.05.23-.02.52.21,1.27.43,1.8.58.87.24,1.79-.1,2.3-.83h1.79v27.6s-43.55,0-43.55,0v-5.12c0-.51-.41-.92-.92-.92s-.92.41-.92.92v6.04c0,.51.41.92.92.92h45.39c.24,0,.48-.1.65-.27s.27-.41.27-.65v-29.44c0-.51-.41-.92-.92-.92h-1.66c.25-.6.2-1.28-.12-1.84h3c.85,0,1.53.69,1.53,1.53v3.03c0,.51.41.92.92.92s.92-.41.92-.92v-3.03c0-1.86-1.51-3.37-3.37-3.37h-4.84s-.02-.07-.02-.1v-1.77c0-.08.04-.16.1-.21.44-.35,1.01-.88,1.4-1.27.69-.68.83-1.73.35-2.56l-.83-1.44c-.48-.83-1.47-1.23-2.39-.98-.54.15-1.28.37-1.8.58-.07.03-.16.02-.23-.02l-1.54-.89c-.07-.04-.12-.11-.13-.19-.08-.56-.26-1.31-.4-1.84-.24-.93-1.08-1.58-2.05-1.58h-1.67c-.96,0-1.8.65-2.04,1.58-.14.53-.32,1.29-.4,1.84-.01.08-.06.15-.13.19l-1.54.89c-.07.04-.16.05-.23.02-.52-.21-1.27-.43-1.8-.58-.93-.26-1.91.14-2.39.98l-.83,1.44c-.48.83-.34,1.89.35,2.56.39.39.96.92,1.4,1.27.06.05.1.13.1.21v1.77s0,.07-.02.1h-26.26c-1.86,0-3.37,1.51-3.37,3.38v31.9c0,.55.14,1.07.37,1.53h-3.07c-.78,0-1.41.63-1.41,1.41v2.45c0,2.27,1.84,4.11,4.11,4.11h42.99c.51,0,.92-.41.92-.92s-.41-.92-.92-.92H23.25c-1.25,0-2.27-1.02-2.27-2.27v-2.02h23v.55c0,1.32,1.07,2.39,2.39,2.39h8.34c1.32,0,2.39-1.07,2.39-2.39v-.55h23v2.02c0,1.25-1.02,2.27-2.27,2.27h-7.64c-.51,0-.92.41-.92.92s.41.92.92.92h7.64c2.27,0,4.11-1.84,4.11-4.11v-2.45c0-.78-.63-1.41-1.41-1.41h0ZM47.92,36.08c.18.69.31,1.27.36,1.64.09.64.47,1.2,1.04,1.53l1.54.89c.57.33,1.24.37,1.84.13.35-.14.92-.32,1.61-.51.12-.03.25.02.31.12l.83,1.44c.06.11.04.24-.05.33-.51.5-.95.9-1.25,1.13-.51.4-.81,1-.81,1.66v1.77c0,.65.29,1.26.81,1.66.29.23.74.63,1.25,1.13.09.09.11.22.05.33l-.83,1.44c-.06.11-.19.16-.31.13-.69-.19-1.26-.37-1.61-.51-.6-.24-1.27-.2-1.84.13l-1.54.89c-.57.33-.94.88-1.04,1.53h0c-.05.37-.18.95-.36,1.64-.03.12-.14.21-.26.21h-1.67c-.12,0-.23-.08-.26-.21-.18-.69-.31-1.27-.36-1.64-.09-.64-.47-1.2-1.04-1.53l-1.54-.89c-.33-.19-.69-.28-1.05-.28-.27,0-.53.05-.78.15-.35.14-.92.32-1.61.51-.12.03-.25-.02-.31-.12l-.83-1.44c-.06-.11-.04-.24.05-.33.51-.5.95-.9,1.25-1.13.51-.4.81-1,.81-1.66v-1.77c0-.65-.29-1.26-.81-1.66-.29-.23-.74-.63-1.25-1.13-.09-.09-.11-.22-.05-.33l.83-1.44c.06-.11.19-.16.31-.13.69.19,1.26.37,1.61.51.6.24,1.27.2,1.84-.13l1.54-.89c.57-.33.94-.88,1.04-1.53.05-.37.18-.95.36-1.64.03-.12.14-.2.26-.2h1.67c.12,0,.23.08.26.2h0ZM52.69,25.69c-.09-.09-.11-.22-.05-.33l.83-1.44c.06-.11.19-.16.31-.13.69.19,1.26.37,1.61.51.6.24,1.27.2,1.84-.13l1.54-.89c.57-.33.94-.88,1.04-1.53.05-.37.18-.95.36-1.64.03-.12.14-.21.26-.21h1.67c.12,0,.23.08.26.21.18.69.31,1.27.36,1.64.09.64.47,1.2,1.04,1.53l1.54.89c.57.33,1.24.37,1.84.13.34-.14.92-.32,1.61-.51.12-.03.25.02.31.12l.83,1.44c.06.11.04.24-.05.33-.51.5-.95.9-1.25,1.13-.51.4-.81,1-.81,1.66v1.77c0,.65.29,1.26.81,1.66.29.23.74.63,1.25,1.13.09.09.11.22.05.33l-.83,1.44c-.06.11-.19.16-.31.13-.69-.19-1.26-.37-1.61-.51-.6-.24-1.27-.2-1.84.13l-1.54.89c-.57.33-.94.88-1.04,1.53h0c-.05.37-.18.95-.36,1.64-.03.12-.14.21-.26.21h-1.67c-.12,0-.23-.08-.26-.21-.18-.69-.31-1.27-.36-1.64-.09-.64-.47-1.2-1.04-1.53l-1.54-.89c-.33-.19-.69-.28-1.05-.28-.27,0-.53.05-.78.15-.35.14-.92.32-1.61.51-.12.03-.25-.02-.31-.12l-.16-.28s-.01-.02-.02-.03l-.65-1.13c-.06-.11-.04-.24.05-.33.51-.5.95-.9,1.25-1.13.51-.4.81-1,.81-1.66v-1.77c0-.65-.29-1.26-.81-1.66-.29-.23-.74-.63-1.25-1.13h0ZM55.27,69.55c0,.3-.25.55-.55.55h-8.34c-.3,0-.55-.25-.55-.55v-.55h9.45v.55Z"/>
      <path class="cls-1" d="M61.26,34.38c2.77,0,5.02-2.25,5.02-5.01s-2.25-5.01-5.02-5.01-5.02,2.25-5.02,5.01,2.25,5.01,5.02,5.01ZM59.82,32.2h2.87c-.43.22-.92.34-1.43.34s-1-.12-1.43-.34h0ZM61.26,26.2c1.75,0,3.18,1.42,3.18,3.17,0,.35-.06.68-.16.99h-6.04c-.1-.31-.16-.64-.16-.99,0-1.75,1.43-3.17,3.18-3.17h0Z"/>
      <path class="cls-1" d="M41.8,45.32c0,2.76,2.25,5.01,5.02,5.01s5.02-2.25,5.02-5.01-2.25-5.01-5.02-5.01-5.02,2.25-5.02,5.01h0ZM50.01,45.32c0,1.75-1.43,3.17-3.18,3.17s-3.18-1.42-3.18-3.17,1.43-3.17,3.18-3.17,3.18,1.42,3.18,3.17h0Z"/>
    </g>
  </g>
</svg>