<?xml version="1.0" encoding="UTF-8"?>
<svg id="Layer_2" data-name="Layer 2" xmlns="http://www.w3.org/2000/svg" viewBox="0 0 146.51 66.54">
  <defs>
    <style>
      .cls-1 {
        fill: #824c9d;
      }

      .cls-2 {
        fill: #2b2876;
      }
    </style>
  </defs>
  <g id="Layer_1-2" data-name="Layer 1">
    <path class="cls-2" d="M74.06,12.81v39.83c0,1.93-1.56,3.49-3.49,3.49h-6.83v10.41h7.69c7.16,0,12.96-5.8,12.96-12.96V12.81h-10.33Z"/>
    <rect class="cls-2" x="53.41" y="12.81" width="10.33" height="32.92"/>
    <path class="cls-2" d="M30.13,0H10.33S0,0,0,0v43.31h10.33V10.33h3.9v.08h15.05c1.93,0,3.49,1.56,3.49,3.49v38.75c0,1.93-1.56,3.49-3.49,3.49h-6.2v10.41h7.06c7.16,0,12.96-5.8,12.96-12.96V12.96C43.09,5.8,37.29,0,30.13,0Z"/>
    <rect class="cls-1" x="53.38" y="0" width="10.39" height="10.39"/>
    <polygon class="cls-1" points="10.39 56.14 10.39 56.13 10.39 52.07 10.39 45.73 0 45.73 0 52.07 0 56.13 0 66.53 5.2 66.53 10.39 66.53 20.78 66.53 20.78 56.14 10.39 56.14"/>
    <rect class="cls-1" x="74.05" y="0" width="10.39" height="10.39"/>
    <rect class="cls-1" x="136.12" y="0" width="10.39" height="10.39"/>
    <path class="cls-2" d="M125.84,12.81V0h-10.39v53.58c0,7.16,5.81,12.96,12.96,12.96h7.69v-10.41h-6.83c-1.93,0-3.49-1.56-3.49-3.49l.06-29.44h10.26v22.53h10.33V12.81h0s-20.59,0-20.59,0Z"/>
    <rect class="cls-2" x="94.76" y="12.81" width="10.33" height="32.92"/>
    <rect class="cls-1" x="94.77" y="0" width="10.39" height="10.39"/>
  </g>
</svg>