<?xml version="1.0" encoding="UTF-8"?>
<svg id="Layer_2" data-name="Layer 2" xmlns="http://www.w3.org/2000/svg" viewBox="0 0 102.44 102.44">
  <defs>
    <style>
      .cls-1 {
        fill: #fff;
      }

      .cls-2 {
        fill: #1e1b48;
      }
    </style>
  </defs>
  <g id="Layer_1-2" data-name="Layer 1">
    <circle class="cls-2" cx="51.22" cy="51.22" r="51.22"/>
    <g>
      <path class="cls-1" d="M78.3,49.13c-.57,0-1.03-.46-1.03-1.03v-6.21c0-2.85-2.32-5.17-5.17-5.17h-8.28c-.57,0-1.03-.46-1.03-1.03s.46-1.03,1.03-1.03h8.28c4,0,7.24,3.24,7.24,7.24v6.21c0,.57-.46,1.03-1.03,1.03Z"/>
      <path class="cls-1" d="M67.96,82.23h-34.13c-6.61,0-12.41-5.32-12.41-11.38v-28.96c0-4,3.24-7.24,7.24-7.24h12.41c.57,0,1.03.46,1.03,1.03s-.46,1.03-1.03,1.03h-12.41c-2.86,0-5.17,2.32-5.17,5.17s2.32,5.17,5.17,5.17h39.31c6.28,0,11.37,5.1,11.38,11.38v12.41c0,6.28-5.1,11.37-11.38,11.38ZM23.48,46.96v23.89c0,5.33,5.46,9.31,10.34,9.31h34.13c5.14,0,9.3-4.17,9.31-9.31v-12.41c0-5.14-4.17-9.3-9.31-9.31H28.65c-1.95,0-3.81-.78-5.17-2.17h0Z"/>
      <path class="cls-1" d="M66.92,67.75c-1.71,0-3.1-1.39-3.1-3.1s1.39-3.1,3.1-3.1,3.1,1.39,3.1,3.1-1.39,3.1-3.1,3.1ZM66.92,63.61c-.57,0-1.03.46-1.03,1.03s.46,1.03,1.03,1.03,1.03-.46,1.03-1.03-.46-1.03-1.03-1.03Z"/>
      <path class="cls-1" d="M73.13,42.92H27.62c-.57,0-1.03-.46-1.03-1.03s.46-1.03,1.03-1.03h45.51c.57,0,1.03.46,1.03,1.03s-.46,1.03-1.03,1.03Z"/>
      <path class="cls-1" d="M52.44,38.78c-.57,0-1.03-.46-1.03-1.03v-10.34c0-.57.46-1.03,1.03-1.03s1.03.46,1.03,1.03v10.34c0,.57-.46,1.03-1.03,1.03Z"/>
      <path class="cls-1" d="M52.44,28.44c-2.29,0-4.14-1.85-4.14-4.14s1.85-4.14,4.14-4.14,4.14,1.85,4.14,4.14-1.85,4.14-4.14,4.14ZM52.44,22.23c-1.14,0-2.07.93-2.07,2.07s.93,2.07,2.07,2.07,2.07-.93,2.07-2.07-.93-2.07-2.07-2.07Z"/>
      <path class="cls-1" d="M67.96,30.51c-2.29,0-4.14-1.85-4.14-4.14s1.85-4.14,4.14-4.14,4.14,1.85,4.14,4.14-1.85,4.14-4.14,4.14ZM67.96,24.3c-1.14,0-2.07.93-2.07,2.07s.93,2.07,2.07,2.07,2.07-.93,2.07-2.07-.93-2.07-2.07-2.07Z"/>
      <path class="cls-1" d="M59.68,38.78c-.57,0-1.03-.46-1.03-1.03v-11.38c0-.57.46-1.03,1.03-1.03h5.17c.57,0,1.03.46,1.03,1.03s-.46,1.03-1.03,1.03h-4.14v10.34c0,.57-.46,1.03-1.03,1.03Z"/>
      <path class="cls-1" d="M36.93,30.51c-2.29,0-4.14-1.85-4.14-4.14s1.85-4.14,4.14-4.14,4.14,1.85,4.14,4.14-1.85,4.14-4.14,4.14ZM36.93,24.3c-1.14,0-2.07.93-2.07,2.07s.93,2.07,2.07,2.07,2.07-.93,2.07-2.07-.93-2.07-2.07-2.07Z"/>
      <path class="cls-1" d="M45.2,38.78c-.57,0-1.03-.46-1.03-1.03v-10.34h-4.14c-.57,0-1.03-.46-1.03-1.03s.46-1.03,1.03-1.03h5.17c.57,0,1.03.46,1.03,1.03v11.38c0,.57-.46,1.03-1.03,1.03Z"/>
    </g>
  </g>
</svg>