<?xml version="1.0" encoding="UTF-8"?>
<svg id="Layer_2" data-name="Layer 2" xmlns="http://www.w3.org/2000/svg" viewBox="0 0 114.5 114.5">
  <defs>
    <style>
      .cls-1 {
        fill: #fff;
        fill-rule: evenodd;
      }

      .cls-2 {
        fill: #1e1b48;
      }
    </style>
  </defs>
  <g id="Layer_1-2" data-name="Layer 1">
    <g>
      <circle class="cls-2" cx="57.25" cy="57.25" r="57.25"/>
      <path class="cls-1" d="M86.04,46.84l-2.35-.92c-.34-1.27-.84-2.49-1.49-3.64l1.02-2.33c.16-.36.08-.78-.19-1.06l-3.23-3.28c-.27-.28-.69-.36-1.05-.2l-2.3,1.04c-1.13-.66-2.33-1.16-3.58-1.51l-.9-2.38c-.14-.37-.49-.61-.88-.61h-4.57c-.39,0-.74.24-.88.61l-.9,2.38c-1.25.35-2.45.85-3.58,1.51l-2.3-1.04c-.36-.16-.77-.08-1.05.2l-3.23,3.28c-.27.28-.35.7-.19,1.06l1.02,2.34c-.65,1.15-1.14,2.37-1.49,3.64l-2.35.92c-.36.14-.6.5-.6.89v4.64c0,.39.24.75.6.89l2.35.92c.34,1.27.84,2.49,1.49,3.64l-1.02,2.33c-.16.36-.08.78.19,1.06l3.23,3.28c.27.28.69.36,1.05.2l2.3-1.04c1.13.66,2.33,1.16,3.58,1.51l.9,2.38c.14.37.49.61.88.61h4.57c.39,0,.74-.24.88-.61l.9-2.38c1.25-.35,2.45-.85,3.58-1.51l2.3,1.04c.36.16.77.08,1.05-.2l3.23-3.28c.27-.28.35-.7.19-1.06l-1.02-2.34c.65-1.15,1.14-2.37,1.49-3.64l2.35-.92c.36-.14.6-.5.6-.89v-4.64c0-.39-.24-.75-.6-.89h0ZM84.76,51.71l-2.2.86c-.29.11-.5.36-.58.67-.33,1.42-.88,2.76-1.64,4.01-.16.27-.18.6-.06.89l.96,2.19-2.32,2.36-2.15-.97c-.28-.13-.61-.11-.87.06-1.22.77-2.55,1.32-3.95,1.66-.3.07-.55.29-.66.59l-.85,2.23h-3.28l-.85-2.23c-.11-.29-.36-.51-.66-.59-1.39-.34-2.72-.9-3.95-1.66-.26-.17-.59-.19-.87-.06l-2.16.97-2.32-2.36.96-2.19c.13-.29.1-.62-.06-.89-.75-1.24-1.3-2.59-1.64-4.01-.07-.31-.29-.56-.58-.67l-2.2-.86v-3.33l2.2-.86c.29-.11.5-.36.58-.67.33-1.42.88-2.77,1.64-4.01.16-.27.18-.6.06-.89l-.96-2.19,2.32-2.36,2.15.97c.28.13.61.11.87-.06,1.22-.77,2.55-1.32,3.95-1.66.3-.07.55-.29.66-.59l.85-2.23h3.28l.85,2.23c.11.29.36.51.66.59,1.4.34,2.72.9,3.95,1.66.26.17.59.19.87.06l2.15-.97,2.32,2.36-.96,2.19c-.13.29-.1.62.06.89.75,1.24,1.3,2.59,1.64,4.01.07.31.29.56.58.67l2.2.86v3.33ZM68.8,40.23c-5.33,0-9.67,4.41-9.67,9.82s4.34,9.82,9.67,9.82,9.67-4.41,9.67-9.82-4.34-9.82-9.67-9.82ZM68.8,57.96c-4.3,0-7.79-3.55-7.79-7.91s3.5-7.91,7.79-7.91,7.79,3.55,7.79,7.91-3.5,7.91-7.79,7.91ZM31.19,47.89l-.59,1.34c-.16.36-.08.78.19,1.06l2.07,2.1c.27.28.69.36,1.05.2l1.32-.6c.65.37,1.34.66,2.06.87l.52,1.37c.14.37.49.61.88.61h2.93c.39,0,.74-.24.88-.61l.52-1.37c.72-.21,1.41-.5,2.06-.87l1.32.6c.35.16.77.08,1.05-.2l2.07-2.1c.27-.28.35-.7.19-1.06l-.59-1.34c.36-.66.65-1.36.85-2.09l1.35-.53c.36-.14.6-.5.6-.89v-2.98c0-.39-.24-.75-.6-.89l-1.35-.53c-.21-.73-.49-1.43-.85-2.09l.59-1.34c.16-.36.08-.78-.19-1.06l-2.07-2.1c-.27-.28-.69-.36-1.05-.2l-1.32.6c-.65-.37-1.34-.66-2.06-.87l-.52-1.37c-.14-.37-.49-.61-.88-.61h-2.93c-.39,0-.74.24-.88.61l-.52,1.37c-.72.21-1.41.5-2.06.87l-1.32-.6c-.36-.16-.77-.08-1.05.2l-2.07,2.1c-.27.28-.35.7-.19,1.06l.59,1.34c-.36.66-.65,1.36-.85,2.09l-1.35.53c-.36.14-.6.5-.6.89v2.98c0,.39.24.75.6.89l1.35.53c.21.73.49,1.43.85,2.09h0ZM30.26,42.06l1.19-.47c.29-.11.5-.36.58-.67.2-.87.54-1.7,1.01-2.47.16-.27.18-.6.06-.89l-.52-1.19,1.16-1.18,1.17.53c.28.13.61.11.87-.06.75-.47,1.57-.82,2.43-1.02.3-.07.55-.29.66-.59l.46-1.21h1.64l.46,1.21c.11.29.36.51.66.59.86.21,1.68.55,2.43,1.02.26.17.59.19.87.06l1.17-.53,1.16,1.18-.52,1.19c-.13.29-.1.62.06.89.46.77.8,1.6,1.01,2.47.07.31.29.56.58.67l1.19.47v1.67l-1.19.47c-.29.11-.5.36-.58.67-.2.87-.54,1.7-1.01,2.47-.16.27-.18.6-.06.89l.52,1.19-1.16,1.18-1.17-.53c-.28-.13-.61-.11-.87.06-.75.47-1.57.82-2.43,1.02-.3.07-.55.29-.66.59l-.46,1.21h-1.64l-.46-1.21c-.11-.29-.36-.51-.66-.59-.86-.21-1.68-.55-2.43-1.02-.26-.17-.59-.19-.87-.06l-1.17.53-1.16-1.18.52-1.19c.13-.29.1-.62-.06-.89-.46-.77-.8-1.6-1.01-2.47-.07-.31-.29-.56-.58-.67l-1.19-.47v-1.67ZM40.16,49.04c3.34,0,6.05-2.76,6.05-6.15s-2.72-6.15-6.05-6.15-6.05,2.76-6.05,6.15,2.72,6.15,6.05,6.15ZM40.16,38.65c2.3,0,4.17,1.9,4.17,4.24s-1.87,4.24-4.17,4.24-4.17-1.9-4.17-4.24,1.87-4.24,4.17-4.24ZM75.23,71.08l-10.92,3.02c-.48.13-.95.2-1.42.2h0c.22-.23.42-.5.59-.8.99-1.73.41-3.98-1.31-5.11-.04-.02-.07-.04-.11-.06-2.58-1.23-5-2.94-6.94-4.32-.68-.48-1.31-.93-1.86-1.29-2.23-1.47-4.7-1.08-6.81-.5l-8.05,2.2-.33-1.3c-.16-.62-.55-1.15-1.1-1.47-.55-.33-1.19-.42-1.8-.26l-3.05.8c-1.27.33-2.04,1.65-1.71,2.94l4.1,16.1c.16.62.55,1.15,1.1,1.47.37.22.79.34,1.21.34.2,0,.4-.03.6-.08l3.05-.8c.61-.16,1.13-.56,1.45-1.11s.41-1.21.25-1.83l-.41-1.59,1.75-.48,11.2,6.57c1.22.71,2.52,1.07,3.83,1.07.73,0,1.46-.11,2.19-.33l19.97-6.05c1.86-.56,3.02-2.93,2.45-4.97-.28-.99-1.67-4.08-7.93-2.35h0ZM40.29,80.07c-.04.07-.13.19-.3.23l-3.05.8c-.17.04-.31-.02-.38-.06-.07-.04-.19-.13-.23-.31l-4.1-16.1c-.07-.27.1-.55.36-.62l3.05-.8s.08-.02.12-.02c.11,0,.2.04.26.07.07.04.19.13.23.31l4.1,16.1c.04.18-.02.32-.05.38ZM80.17,76.57l-19.97,6.05c-1.56.47-3.09.28-4.54-.57l-11.54-6.76c-.22-.13-.47-.16-.71-.1l-2.11.57-2.43-9.52,8.07-2.2c1.8-.49,3.7-.8,5.3.26.52.34,1.12.77,1.81,1.26,1.99,1.4,4.45,3.15,7.15,4.45.86.6,1.14,1.67.66,2.52-.64,1.12-1.67,1-2.44.69-1.31-.67-2.53-1.41-3.82-2.19-.61-.37-1.25-.76-1.9-1.14-.45-.26-1.02-.11-1.28.35-.26.46-.11,1.04.34,1.3.64.38,1.27.76,1.88,1.13,1.33.81,2.59,1.58,3.98,2.28,0,0,.01,0,.02,0,0,0,.01,0,.02.01l1.12.51c1.7.77,3.35.92,5.04.45l10.92-3.02c3.1-.86,5.2-.47,5.63,1.04.29,1.03-.31,2.35-1.18,2.62h0ZM35.67,66.07c-.06.55-.55.94-1.09.87-.54-.06-.92-.56-.86-1.1s.55-.94,1.09-.87c.54.06.92.56.86,1.1Z"/>
    </g>
  </g>
</svg>