<?xml version="1.0" encoding="UTF-8"?>
<svg id="Layer_2" data-name="Layer 2" xmlns="http://www.w3.org/2000/svg" viewBox="0 0 102.44 102.44">
  <defs>
    <style>
      .cls-1 {
        fill: #fff;
      }

      .cls-2 {
        fill: #1e1b48;
      }
    </style>
  </defs>
  <g id="Layer_1-2" data-name="Layer 1">
    <circle class="cls-2" cx="51.22" cy="51.22" r="51.22"/>
    <g>
      <path class="cls-1" d="M32.15,66.75c-.82,0-1.62.21-2.32.59-3.7-4.75-5.73-10.64-5.73-16.68,0-14.96,12.17-27.13,27.13-27.13,1.82,0,3.64.18,5.4.54.62.13,1.23-.28,1.35-.9s-.28-1.23-.9-1.35c-1.92-.39-3.89-.58-5.86-.58-7.86,0-15.25,3.06-20.81,8.62-5.56,5.56-8.62,12.95-8.62,20.81,0,6.61,2.25,13.07,6.33,18.24-.53.79-.81,1.71-.81,2.68,0,1.29.5,2.5,1.41,3.41.91.91,2.12,1.41,3.41,1.41s2.5-.5,3.41-1.41c.91-.91,1.41-2.12,1.41-3.41s-.5-2.5-1.41-3.41c-.91-.91-2.12-1.41-3.41-1.41ZM33.94,73.37c-.48.48-1.11.74-1.79.74s-1.31-.26-1.79-.74-.74-1.11-.74-1.79.26-1.31.74-1.79c.48-.48,1.11-.74,1.79-.74s1.31.26,1.79.74c.48.48.74,1.11.74,1.79s-.26,1.31-.74,1.79Z"/>
      <path class="cls-1" d="M74.33,32.42c1.25-1.87,1.05-4.44-.6-6.09-.91-.91-2.12-1.41-3.41-1.41s-2.5.5-3.41,1.41c-.91.91-1.41,2.12-1.41,3.41s.5,2.5,1.41,3.41,2.12,1.41,3.41,1.41c.82,0,1.62-.21,2.32-.59,3.7,4.75,5.73,10.64,5.73,16.68,0,14.96-12.17,27.13-27.13,27.13-1.8,0-3.6-.18-5.35-.53-.62-.12-1.23.28-1.35.9-.12.62.28,1.23.9,1.35,1.9.38,3.85.57,5.8.57,7.86,0,15.25-3.06,20.81-8.62,5.56-5.56,8.62-12.95,8.62-20.81,0-6.61-2.25-13.07-6.33-18.24ZM68.52,31.53c-.48-.48-.74-1.11-.74-1.79s.26-1.31.74-1.79c.48-.48,1.11-.74,1.79-.74s1.31.26,1.79.74c.99.99.99,2.59,0,3.58-.48.48-1.11.74-1.79.74s-1.31-.26-1.79-.74Z"/>
      <path class="cls-1" d="M46.49,70.44c0,.64.52,1.15,1.15,1.15h7.19c.64,0,1.15-.51,1.15-1.15v-2.23c1.51-.41,2.96-1.01,4.31-1.79l1.57,1.57c.22.22.51.34.81.34s.6-.12.81-.34l5.08-5.08c.45-.45.45-1.18,0-1.63l-1.57-1.57c.78-1.36,1.38-2.8,1.79-4.31h2.22c.64,0,1.15-.51,1.15-1.15v-7.19c0-.64-.51-1.15-1.15-1.15h-2.22c-.41-1.51-1.01-2.96-1.79-4.31l1.56-1.56c.22-.22.34-.51.34-.81,0-.3-.12-.6-.34-.81l-5.09-5.08c-.45-.45-1.18-.45-1.63,0l-1.56,1.56c-1.36-.78-2.8-1.38-4.31-1.79v-2.21c0-.64-.51-1.15-1.15-1.15h-7.19c-.63,0-1.15.51-1.15,1.15v2.21c-1.51.41-2.96,1.01-4.31,1.79l-1.56-1.56c-.45-.45-1.18-.45-1.63,0l-5.08,5.08c-.22.22-.34.51-.34.81s.12.6.34.81l1.56,1.56c-.78,1.36-1.38,2.8-1.79,4.31h-2.22c-.64,0-1.15.51-1.15,1.15v7.19c0,.3.12.6.33.81s.51.34.81.34h2.22c.41,1.51,1.01,2.96,1.79,4.31l-1.57,1.57c-.45.45-.45,1.18,0,1.63l5.08,5.08c.22.22.51.34.81.34h0c.3,0,.6-.12.81-.34l1.57-1.57c1.36.78,2.8,1.38,4.31,1.79v2.23ZM42.62,64c-.45-.29-1.05-.23-1.44.15l-1.4,1.4-3.46-3.46,1.4-1.4c.38-.38.45-.98.15-1.44-1.04-1.61-1.78-3.38-2.18-5.26-.11-.53-.58-.91-1.12-.91h-1.97v-4.89h1.97c.54,0,1.01-.38,1.12-.91.4-1.87,1.14-3.64,2.18-5.26.29-.45.23-1.05-.15-1.44l-1.39-1.39,3.46-3.46,1.39,1.39c.38.38.98.45,1.44.15,1.61-1.04,3.38-1.78,5.26-2.18.53-.11.91-.58.91-1.12v-1.96h4.89v1.96c0,.54.38,1.01.91,1.12,1.87.4,3.64,1.14,5.26,2.18.45.29,1.05.23,1.44-.15l1.39-1.39,3.46,3.46-1.39,1.39c-.38.38-.45.98-.15,1.44,1.04,1.61,1.77,3.38,2.18,5.26.11.53.58.91,1.12.91h1.98v4.89h-1.98c-.54,0-1.01.38-1.12.91-.4,1.87-1.14,3.64-2.18,5.26-.29.46-.23,1.05.15,1.44l1.4,1.4-3.46,3.46-1.4-1.4c-.38-.38-.98-.45-1.44-.15-1.61,1.04-3.38,1.77-5.26,2.18-.53.11-.91.58-.91,1.12v1.98h-4.89v-1.98c0-.54-.38-1.01-.91-1.12-1.87-.4-3.64-1.14-5.26-2.18Z"/>
      <path class="cls-1" d="M60.73,50.66c0-5.24-4.26-9.5-9.5-9.5s-9.5,4.26-9.5,9.5,4.26,9.5,9.5,9.5,9.5-4.26,9.5-9.5ZM44.03,50.66c0-3.97,3.23-7.2,7.2-7.2s7.2,3.23,7.2,7.2-3.23,7.2-7.2,7.2-7.2-3.23-7.2-7.2Z"/>
      <path class="cls-1" d="M61.82,25.58c.3,0,.6-.12.81-.34.21-.22.34-.51.34-.81s-.12-.6-.34-.81c-.21-.21-.51-.34-.81-.34s-.6.12-.81.34c-.21.22-.34.51-.34.81s.12.6.34.81c.21.21.51.34.81.34Z"/>
      <path class="cls-1" d="M40.69,75.77c-.3,0-.6.12-.81.34s-.34.51-.34.81.12.6.34.81.51.34.81.34.6-.12.81-.34.34-.51.34-.81-.12-.6-.34-.81-.51-.34-.81-.34Z"/>
    </g>
  </g>
</svg>