<?xml version="1.0" encoding="UTF-8"?>
<svg id="Layer_2" data-name="Layer 2" xmlns="http://www.w3.org/2000/svg" viewBox="0 0 114.5 114.5">
  <defs>
    <style>
      .cls-1 {
        fill: #f9f9f9;
      }

      .cls-2 {
        fill: #1e1b48;
      }
    </style>
  </defs>
  <g id="Layer_1-2" data-name="Layer 1">
    <g>
      <circle class="cls-2" cx="57.25" cy="57.25" r="57.25"/>
      <g>
        <path class="cls-1" d="M64.58,88.91c0,.81.66,1.47,1.47,1.47s1.47-.66,1.47-1.47-.66-1.47-1.47-1.47-1.47.66-1.47,1.47Z"/>
        <path class="cls-1" d="M49.92,25.6c0-.81-.66-1.47-1.47-1.47s-1.47.66-1.47,1.47.66,1.47,1.47,1.47,1.47-.66,1.47-1.47Z"/>
        <path class="cls-1" d="M34.83,57.25c0-.81-.66-1.47-1.47-1.47s-1.47.66-1.47,1.47.66,1.47,1.47,1.47,1.47-.66,1.47-1.47Z"/>
        <path class="cls-1" d="M42.26,26.19c-8.6,4.29-15.8,12.91-18.34,21.95-.22.78.24,1.59,1.01,1.81.78.22,1.59-.23,1.81-1.01,2.33-8.29,8.94-16.19,16.83-20.12.72-.36,1.02-1.24.66-1.97s-1.24-1.02-1.97-.66Z"/>
        <path class="cls-1" d="M87.76,48.94c.22.78,1.03,1.23,1.81,1.01.78-.22,1.23-1.03,1.01-1.81-3.18-11.31-12.91-21.05-24.23-24.23-.78-.22-1.59.24-1.81,1.01-.22.78.24,1.59,1.01,1.81,10.37,2.91,19.29,11.83,22.2,22.2Z"/>
        <path class="cls-1" d="M70.28,87.66c.36.73,1.25,1.02,1.97.66,8.6-4.29,15.8-12.91,18.34-21.95.22-.78-.24-1.59-1.01-1.81-.78-.22-1.59.23-1.81,1.01-2.33,8.29-8.94,16.19-16.83,20.12-.72.36-1.02,1.24-.66,1.97Z"/>
        <path class="cls-1" d="M24.93,64.55c-.78.22-1.23,1.03-1.01,1.81,3.18,11.31,12.91,21.05,24.23,24.23.78.22,1.59-.23,1.81-1.01.22-.78-.24-1.59-1.01-1.81-10.36-2.91-19.29-11.83-22.2-22.2-.22-.78-1.03-1.23-1.81-1.01Z"/>
        <path class="cls-1" d="M61.65,24.13c0-2.42-1.97-4.4-4.4-4.4s-4.4,1.97-4.4,4.4,1.97,4.4,4.4,4.4,4.4-1.97,4.4-4.4ZM55.79,24.13c0-.81.66-1.47,1.47-1.47s1.47.66,1.47,1.47-.66,1.47-1.47,1.47-1.47-.66-1.47-1.47Z"/>
        <path class="cls-1" d="M90.37,52.86c-2.42,0-4.4,1.97-4.4,4.4s1.97,4.4,4.4,4.4,4.4-1.97,4.4-4.4-1.97-4.4-4.4-4.4ZM90.37,58.72c-.81,0-1.47-.66-1.47-1.47s.66-1.47,1.47-1.47,1.47.66,1.47,1.47-.66,1.47-1.47,1.47Z"/>
        <path class="cls-1" d="M19.74,57.25c0,2.42,1.97,4.4,4.4,4.4s4.4-1.97,4.4-4.4-1.97-4.4-4.4-4.4-4.4,1.97-4.4,4.4ZM24.13,55.79c.81,0,1.47.66,1.47,1.47s-.66,1.47-1.47,1.47-1.47-.66-1.47-1.47.66-1.47,1.47-1.47Z"/>
        <path class="cls-1" d="M52.86,90.37c0,2.42,1.97,4.4,4.4,4.4s4.4-1.97,4.4-4.4-1.97-4.4-4.4-4.4-4.4,1.97-4.4,4.4ZM58.72,90.37c0,.81-.66,1.47-1.47,1.47s-1.47-.66-1.47-1.47.66-1.47,1.47-1.47,1.47.66,1.47,1.47Z"/>
        <path class="cls-1" d="M44.06,66.04v2.93c0,.81.66,1.47,1.47,1.47h23.45c.81,0,1.47-.66,1.47-1.47v-2.93c0-5.66-4.6-10.26-10.26-10.26h-5.86c-5.66,0-10.26,4.6-10.26,10.26ZM60.18,58.72c4.04,0,7.33,3.29,7.33,7.33v1.47h-2.93v-2.93c0-.81-.66-1.47-1.47-1.47s-1.47.66-1.47,1.47v2.93h-8.79v-2.93c0-.81-.66-1.47-1.47-1.47s-1.47.66-1.47,1.47v2.93h-2.93v-1.47c0-4.04,3.29-7.33,7.33-7.33h5.86Z"/>
        <path class="cls-1" d="M64.58,48.46c0-4.04-3.29-7.33-7.33-7.33s-7.33,3.29-7.33,7.33,3.29,7.33,7.33,7.33,7.33-3.29,7.33-7.33ZM57.25,52.86c-2.42,0-4.4-1.97-4.4-4.4s1.97-4.4,4.4-4.4,4.4,1.97,4.4,4.4-1.97,4.4-4.4,4.4Z"/>
        <path class="cls-1" d="M32.67,51.07c-.2.78.27,1.58,1.06,1.78.78.2,1.58-.27,1.78-1.06,2.52-9.83,11.66-16.97,21.74-16.97,12.15,0,22.42,10.27,22.42,22.42s-10.27,22.42-22.42,22.42c-10.04,0-19.18-7.14-21.74-16.97-.2-.78-1-1.25-1.79-1.05-.78.2-1.25,1-1.05,1.79,2.88,11.11,13.22,19.17,24.58,19.17,6.45,0,12.89-2.68,17.67-7.34,4.96-4.84,7.69-11.23,7.69-18.01,0-13.74-11.61-25.35-25.35-25.35-11.41,0-21.76,8.2-24.58,19.17Z"/>
      </g>
    </g>
  </g>
</svg>