<?xml version="1.0" encoding="UTF-8"?>
<svg id="Layer_2" data-name="Layer 2" xmlns="http://www.w3.org/2000/svg" xmlns:xlink="http://www.w3.org/1999/xlink" viewBox="0 0 125.28 194.76">
  <defs>
    <style>
      .cls-1 {
        fill: #fff;
      }

      .cls-2 {
        isolation: isolate;
      }

      .cls-3 {
        filter: url(#outer-glow-1);
      }
    </style>
    <filter id="outer-glow-1" x="-36.1" y="-36.94" width="198" height="268" filterUnits="userSpaceOnUse">
      <feOffset dx="0" dy="0"/>
      <feGaussianBlur result="blur" stdDeviation="12"/>
      <feFlood flood-color="#000" flood-opacity=".8"/>
      <feComposite in2="blur" operator="in"/>
      <feComposite in="SourceGraphic"/>
    </filter>
  </defs>
  <g id="Layer_1-2" data-name="Layer 1">
    <g id="uuid-430e54a9-5fe2-4a6d-9b6b-8b02825e3194" data-name="Layer 1-2" class="cls-3">
      <g>
        <g>
          <g class="cls-2">
            <g class="cls-2">
              <path class="cls-1" d="M2.63,138.26h5.09l7.37,14.74,7.37-14.74h5.09v21.41h-5.26v-14.04l-7.02,14.04h-2.11l-7.19-14.21v14.21h-3.33v-21.41Z"/>
              <path class="cls-1" d="M44.39,138.26h5.26v21.41h-5.26v-21.41Z"/>
              <path class="cls-1" d="M66.32,138.26h3.33l12.28,13.69v-13.69h3.33v21.76h-2.28l-13.33-15.09v14.74h-3.33v-21.41Z"/>
              <path class="cls-1" d="M102.12,138.26h7.72c1.93,0,3.86.18,5.61.7s3.16,1.23,4.39,2.11,2.11,1.93,2.81,3.33c.7,1.23,1.05,2.81,1.05,4.56s-.35,2.98-.88,4.21c-.53,1.4-1.4,2.46-2.46,3.51s-2.46,1.75-4.04,2.28-3.51.88-5.44.88h-8.6v-21.41l-.18-.18ZM107.38,157.56h2.81c1.05,0,1.93-.18,2.98-.53,1.05-.35,1.75-.88,2.46-1.75.7-.7,1.23-1.58,1.58-2.81.35-1.05.53-2.28.53-3.68s-.18-2.28-.53-3.33-.88-1.93-1.58-2.63-1.4-1.4-2.46-1.75-1.93-.7-2.98-.7h-2.81v17.19Z"/>
            </g>
            <g class="cls-2">
              <path class="cls-1" d="M3.33,165.63h2.81l3.86,7.72,3.86-7.72h2.63v11.4h-2.81v-7.37l-3.68,7.37h-1.05l-3.86-7.54v7.54h-1.75v-11.4Z"/>
            </g>
            <g class="cls-2">
              <path class="cls-1" d="M31.06,165.28l5.26,11.58h-2.81l-1.4-3.16h-4.39l-1.58,3.16h-1.93l5.61-11.58s1.23,0,1.23,0ZM28.25,172.83h3.51l-1.75-3.68-1.75,3.68Z"/>
            </g>
            <g class="cls-2">
              <path class="cls-1" d="M46.85,171.25c0,.7,0,1.4.35,1.93.18.53.53,1.05.88,1.4.35.35.88.7,1.23.88.53.18,1.05.35,1.58.35s.7,0,1.05-.18c.35,0,.7-.35,1.05-.53.35-.18.53-.53.88-.88.18-.35.53-.7.7-1.05l1.23.88c-.18.35-.53.88-.88,1.23s-.7.7-1.23,1.05c-.53.35-.88.53-1.4.7-.53,0-1.05.18-1.58.18-1.05,0-1.93,0-2.63-.35-.7-.35-1.58-.7-2.11-1.23-.53-.53-1.05-1.23-1.4-1.93-.35-.7-.53-1.58-.53-2.46s0-1.75.53-2.46.7-1.4,1.4-1.93,1.23-.88,2.11-1.23c.88-.35,1.75-.53,2.63-.53s1.23,0,1.75.18c.53,0,1.05.35,1.4.7.53.35.88.53,1.23,1.05.35.35.7.88.88,1.23l-1.23.88c-.18-.35-.53-.7-.7-1.05-.35-.35-.53-.53-.88-.88-.35-.18-.7-.35-1.05-.53s-.7-.18-1.05-.18-1.05,0-1.58.35c-.53.18-.88.53-1.23.88s-.7.88-.88,1.4-.35,1.23-.35,1.93l-.18.18Z"/>
              <path class="cls-1" d="M67.02,171.6v5.44h-2.81v-11.4h2.81v4.91h4.56v-4.91h2.81v11.4h-2.81v-5.44h-4.56Z"/>
              <path class="cls-1" d="M83.52,165.63h2.81v11.4h-2.81v-11.4Z"/>
              <path class="cls-1" d="M95.27,165.63h1.75l6.49,7.19v-7.19h1.75v11.58h-1.23l-7.02-8.07v7.9h-1.75v-11.4Z"/>
              <path class="cls-1" d="M122.82,165.63v1.05h-5.79v3.68h4.74v1.05h-4.74v4.56h5.79v1.23h-8.6v-11.4h8.6v-.18Z"/>
            </g>
          </g>
          <g class="cls-2">
            <g class="cls-2">
              <path class="cls-1" d="M10.7,194.23h.53s.35,0,.53-.18l.35-.35v-1.05s-.18-.35-.53-.53c-.18,0-.35-.35-.7-.35s-.53-.18-.7-.35c-.18,0-.53-.18-.7-.35s-.53-.35-.7-.53c-.18,0-.35-.35-.53-.53v-1.4c0-.18.18-.35.53-.53.18,0,.35-.35.7-.35h1.93c.35,0,.53.18.7.35.18,0,.35.35.53.53,0,.18.18.35.35.7l-.53.35c0-.18,0-.35-.35-.53,0-.18-.18-.35-.35-.53,0,0-.35-.18-.53-.35h-1.23s-.35,0-.35.18-.18.18-.18.35v.88s.35.35.53.35.35.35.7.35c.18,0,.53.18.7.35.18,0,.53.35.7.35s.53.35.7.53c.18,0,.35.35.53.53v1.58c0,.18-.35.53-.53.7-.18.18-.53.35-.88.35h-1.93c-.35,0-.53-.18-.7-.35s-.35-.35-.53-.53c0-.18-.35-.35-.35-.7h.7l.35.35c0,.18.35.35.53.53s.35.18.53.35h.7l-.53-.18Z"/>
              <path class="cls-1" d="M24.39,194.76c-.53,0-1.05,0-1.58-.35-.53-.18-.88-.53-1.23-.88s-.7-.7-.88-1.23c-.18-.53-.35-.88-.35-1.4v-1.05c0-.35.18-.53.35-.88s.35-.53.53-.7.53-.35.7-.53c.35,0,.53-.35.88-.35h2.11c.35,0,.7.18.88.35.35,0,.53.35.7.53.18.18.35.53.53.7,0,.35.35.53.35.88v2.11c0,.35-.18.7-.35.88,0,.35-.35.53-.53.7s-.53.35-.7.53c-.35,0-.53.35-.88.35h-1.05l.53.35ZM24.39,194.41c.35,0,.7,0,1.05-.18s.53-.35.7-.7c.18-.35.35-.7.53-1.05v-2.81c0-.35-.35-.7-.53-1.05s-.53-.53-.7-.7c-.35,0-.7-.18-1.05-.18s-.7,0-1.05.18c-.35,0-.53.35-.7.7s-.35.7-.53,1.05v2.81c0,.35.35.7.53,1.05s.53.53.7.7c.35,0,.7.18,1.05.18Z"/>
              <path class="cls-1" d="M35.97,187.39h1.23v6.67h3.51v.53h-4.74v-7.19Z"/>
              <path class="cls-1" d="M47.72,187.39h1.23v5.44c0,.35.18.53.53.7s.35.35.7.53h1.75c.35,0,.53-.35.7-.53s.35-.35.35-.7v-5.44h.53v4.56c0,.35,0,.7-.18,1.05s-.35.53-.53.88-.53.35-.88.53-.88.18-1.4.18-.88,0-1.23-.18-.7-.35-.88-.53c-.18-.18-.53-.53-.53-.88s-.18-.7-.18-1.05v-4.56Z"/>
              <path class="cls-1" d="M67.2,187.39v.53h-2.63v6.67h-1.23v-6.67h-2.63v-.53h6.49Z"/>
              <path class="cls-1" d="M74.39,187.39h1.23v7.02h-1.23v-7.02Z"/>
              <path class="cls-1" d="M87.03,194.76c-.53,0-1.05,0-1.58-.35-.53-.18-.88-.53-1.23-.88s-.7-.7-.88-1.23-.35-.88-.35-1.4v-1.05c0-.35.18-.53.35-.88s.35-.53.53-.7.53-.35.7-.53c.35,0,.53-.35.88-.35h2.11c.35,0,.7.18.88.35.35,0,.53.35.7.53.18.18.35.53.53.7s.35.53.35.88v2.11c0,.35-.18.7-.35.88s-.35.53-.53.7-.53.35-.7.53c-.35,0-.53.35-.88.35h-1.05l.53.35ZM87.03,194.41c.35,0,.7,0,1.05-.18.35,0,.53-.35.7-.7l.53-1.05c.18-.35,0-.88,0-1.4v-1.4c0-.53-.35-.7-.53-1.05s-.53-.53-.7-.7c-.35,0-.7-.18-1.05-.18s-.7,0-1.05.18c-.35,0-.53.35-.7.7l-.53,1.05v2.81c0,.35.35.7.53,1.05s.53.53.7.7.7.18,1.05.18Z"/>
              <path class="cls-1" d="M98.61,187.39h.7l4.56,5.26h0v-5.26h.53v7.19h-.35l-5.09-5.79h0v5.61h-.53v-7.02h.18Z"/>
              <path class="cls-1" d="M114.75,194.23h.53s.35,0,.53-.18l.35-.35v-1.05c0-.18-.18-.35-.53-.53s-.35-.35-.7-.35-.53-.18-.7-.35-.53-.18-.7-.35-.53-.35-.7-.53-.35-.35-.35-.53v-1.4c0-.18.18-.35.53-.53.18,0,.35-.35.7-.35h1.93c.35,0,.53.18.7.35.18,0,.35.35.53.53,0,.18.18.35.35.7l-.53.35c0-.18,0-.35-.35-.53,0-.18-.18-.35-.35-.53,0,0-.35-.18-.53-.35h-1.23s-.35,0-.35.18c0,0-.18.18-.18.35v.88s.35.35.53.35.35.35.7.35.53.18.7.35c.18,0,.53.35.7.35s.53.35.7.53c.18,0,.35.35.53.53v1.58c0,.18-.35.53-.53.7-.18.18-.53.35-.88.35h-1.93c-.35,0-.53-.18-.7-.35l-.53-.53c0-.18-.35-.35-.35-.7h.7l.35.35c0,.18.35.35.53.53s.35.18.53.35h.7l-.7-.18Z"/>
            </g>
          </g>
        </g>
        <path class="cls-1" d="M38.6,28.6c-.53-2.11,2.28-3.16,3.51-1.4l17.37,27.37,1.75,46.5c-1.75,0-3.51.35-5.26.88L38.6,28.77h0v-.18ZM44.39,108.96c1.05-1.23,2.28-2.28,3.51-3.16L0,30.18v30.53l44.22,48.25h.18ZM40.18,115.1c.7-1.4,1.4-2.81,2.46-4.04L0,73.34v17.19l40.18,24.39h0v.18ZM.7,11.05C2.46,4.39,8.07,0,15.09,0s4.39.35,6.14.88l32.81,101.41c-1.58.53-2.81,1.23-4.21,2.11L.7,11.05ZM35.97,65.62h.7l-.7-1.05v1.05ZM38.25,121.07c.18-1.4.7-2.63,1.05-3.86L0,97.38v11.58l38.25,12.11h0ZM.35,114.57c1.23,5.97,5.79,10.18,11.76,10.7h25.79v-2.28L.35,114.57ZM86.5,28.6c.53-2.11-2.28-3.16-3.51-1.4l-17.37,27.37-1.75,46.5c1.75,0,3.51.35,5.26.88l17.37-73.17h0v-.18ZM125.1,60.71v-30.53l-47.72,75.45c1.23.88,2.46,2.11,3.51,3.16l44.22-48.25v.18ZM125.1,90.54v-17.19l-42.46,37.72c.88,1.23,1.75,2.63,2.46,4.04l40.18-24.39-.18-.18ZM75.45,104.4c-1.4-.88-2.81-1.4-4.21-2.11L104.05.88c1.75-.7,3.86-.88,6.14-.88,6.84,0,12.46,4.39,14.39,11.05l-49.13,93.34h0ZM89.13,64.39l-.7,1.05h.7v-1.05ZM125.1,108.96v-11.58l-39.3,19.65c.53,1.23.88,2.63,1.05,3.86l38.25-12.11v.18ZM87.2,123.17v2.28h25.79c5.97-.7,10.53-4.91,11.76-10.88l-37.55,8.42v.18Z"/>
      </g>
    </g>
  </g>
</svg>