<?xml version="1.0" encoding="UTF-8"?>
<svg id="Layer_2" data-name="Layer 2" xmlns="http://www.w3.org/2000/svg" viewBox="0 0 102.44 102.44">
  <defs>
    <style>
      .cls-1 {
        fill: #fff;
      }

      .cls-2 {
        fill: #1e1b48;
      }
    </style>
  </defs>
  <g id="Layer_1-2" data-name="Layer 1">
    <circle class="cls-2" cx="51.22" cy="51.22" r="51.22"/>
    <g>
      <path class="cls-1" d="M23.16,83.86c.45.31,1.07.19,1.38-.27.05-.08,5.33-7.54,22.86-4.57,14.38,2.44,19.7-3.61,24.84-9.46,3.07-3.49,6-6.79,10.83-8.22-.22.5,0,1.08.51,1.3.45.2.99.03,1.24-.39l1.14-1.88c.28-.47.13-1.08-.33-1.36-.01,0-.02-.01-.04-.02l-1.98-1.09c-.48-.26-1.08-.09-1.34.39-.21.38-.15.86.17,1.18-5.33,1.6-8.56,5.24-11.68,8.79-5.01,5.69-9.73,11.06-23.02,8.81-18.78-3.19-24.6,5.06-24.83,5.41-.31.45-.19,1.07.27,1.38Z"/>
      <path class="cls-1" d="M44.01,74.59v-5.91c0-1.09-.89-1.98-1.98-1.98h-3.96c-1.09,0-1.98.89-1.98,1.98v5.87c.65-.06,1.31-.11,1.98-.13v-5.74h3.96v5.77c.65.03,1.31.08,1.98.15Z"/>
      <path class="cls-1" d="M31.1,68.24c.39.38,1.02.37,1.4-.03.38-.39.37-1.01-.02-1.39-10.18-9.92-10.39-26.23-.47-36.41,4.85-4.97,11.5-7.78,18.44-7.78,10.11.01,19.27,5.92,23.46,15.12.23.5.81.72,1.31.49.5-.23.72-.81.49-1.31-6.32-13.95-22.76-20.13-36.71-13.81-9.91,4.49-16.28,14.37-16.28,25.25-.02,7.48,3,14.65,8.38,19.86Z"/>
      <path class="cls-1" d="M66.93,32.64c.18-.19.28-.44.27-.71,0-.26-.12-.51-.3-.69-9.47-9.09-24.51-8.78-33.6.69-9.04,9.42-8.79,24.37.56,33.48.39.38,1.02.38,1.4-.01.38-.39.38-1.02-.01-1.4,0,0,0,0,0,0-3.62-3.51-5.9-8.17-6.45-13.18l21.87-2.21c.23-.02.44-.13.6-.29,0,0,15.65-15.65,15.66-15.66ZM60.64,29.13l-12.38,12.38-1.52-2.68,10.99-10.99c1,.36,1.98.79,2.92,1.28h0ZM51.91,26.65c1.23.08,2.45.26,3.65.55l-9.85,9.85-1.52-2.68,7.72-7.72ZM49.13,26.63l-5.94,5.94-2.17-3.83c2.54-1.22,5.3-1.94,8.12-2.12h0ZM28.67,48.82c0-.14,0-.29,0-.44,0-7.66,4.03-14.76,10.6-18.69l9.69,17.08-20.29,2.05ZM50.79,45.98l-1.52-2.68,13.13-13.13c.84.55,1.63,1.16,2.39,1.81l-13.99,13.99Z"/>
      <path class="cls-1" d="M53.4,75.61c.35,0,.68-.02,1.01-.03v-16.8c0-1.09-.89-1.98-1.98-1.98h-3.96c-1.09,0-1.98.89-1.98,1.98v16.11c.52.07,1.04.14,1.57.23.14.02.27.04.41.06v-16.41h3.96v16.81c.33.01.65.02.97.02Z"/>
      <path class="cls-1" d="M64.31,71.98v-23.11c0-1.09-.89-1.98-1.98-1.98h-3.96c-1.09,0-1.98.89-1.98,1.98v26.54c.67-.09,1.33-.23,1.98-.4v-26.14h3.96v24.49c.69-.41,1.35-.88,1.98-1.38Z"/>
      <path class="cls-1" d="M74.22,61.84v-17.92c0-1.09-.89-1.98-1.98-1.98h-3.96c-1.09,0-1.98.89-1.98,1.98v26.27c.67-.67,1.32-1.39,1.98-2.12v-24.15h3.96v19.78c.63-.64,1.29-1.27,1.98-1.86Z"/>
      <circle class="cls-1" cx="34.11" cy="42.44" r=".99"/>
      <circle class="cls-1" cx="33.61" cy="38.97" r=".99"/>
      <circle class="cls-1" cx="37.58" cy="40.95" r=".99"/>
      <circle class="cls-1" cx="37.58" cy="44.91" r=".99"/>
      <circle class="cls-1" cx="42.53" cy="44.91" r=".99"/>
      <circle class="cls-1" cx="41.54" cy="39.96" r=".99"/>
      <circle class="cls-1" cx="37.08" cy="37.49" r=".99"/>
      <circle class="cls-1" cx="38.07" cy="33.52" r=".99"/>
      <circle class="cls-1" cx="31.14" cy="45.41" r=".99"/>
    </g>
  </g>
</svg>