<?xml version="1.0" encoding="UTF-8"?>
<svg id="Layer_2" data-name="Layer 2" xmlns="http://www.w3.org/2000/svg" viewBox="0 0 114.5 114.5">
  <defs>
    <style>
      .cls-1 {
        fill: #f2f2f2;
      }

      .cls-2 {
        fill: #1e1b48;
      }
    </style>
  </defs>
  <g id="Layer_1-2" data-name="Layer 1">
    <g>
      <circle class="cls-2" cx="57.25" cy="57.25" r="57.25"/>
      <g>
        <path class="cls-1" d="M57.25,21.24c-.73,0-1.32.59-1.32,1.32v7.85c0,.73.59,1.32,1.32,1.32s1.32-.59,1.32-1.32v-7.85c0-.73-.59-1.32-1.32-1.32Z"/>
        <path class="cls-1" d="M49.77,32.5l-3.16-3.15c-.52-.52-1.35-.51-1.87,0-.51.52-.51,1.35,0,1.87l3.16,3.15c.26.26.6.39.93.39s.68-.13.93-.39c.51-.52.51-1.35,0-1.87Z"/>
        <path class="cls-1" d="M69.75,29.35c-.52-.52-1.35-.51-1.87,0l-3.36,3.36c-.51.52-.51,1.35,0,1.87.26.26.6.39.93.39s.68-.13.93-.39l3.36-3.36c.51-.52.51-1.35,0-1.87Z"/>
        <path class="cls-1" d="M82.39,56.07h-1.06c.87-1.13,1.39-2.55,1.39-4.08v-1.86c0-3.71-3.02-6.72-6.72-6.72s-6.72,3.02-6.72,6.72v1.45l-9.93-9.93c-.55-.55-1.36-.73-2.09-.46-.73-.26-1.54-.09-2.09.47l-9.93,9.93v-1.45c0-3.71-3.02-6.72-6.72-6.72s-6.72,3.02-6.72,6.72v1.86c0,1.53.52,2.95,1.39,4.08h-1.06c-4.77,0-8.64,3.88-8.64,8.64v17.48c0,.73.59,1.32,1.32,1.32h5.57c.13,0,.26-.02.38-.06.12.04.25.06.38.06h14.78c.73,0,1.32-.59,1.32-1.32v-4.49c0-.73-.59-1.32-1.32-1.32s-1.32.59-1.32,1.32v3.17h-12.14v-15.03c0-.73-.59-1.32-1.32-1.32s-1.32.59-1.32,1.32v15.03h-3.69v-16.16c0-3.31,2.69-6,6-6h9.17c.36,0,.69-.15.93-.38,0,0,0,0,0,0l13.7-13.7c-.09,2.74-.94,5.38-2.48,7.66l-8.63,12.82c-.15.22-.22.47-.22.74v1.44c0,.73.59,1.32,1.32,1.32s1.32-.59,1.32-1.32v-1.04l8.41-12.49c.64-.95,1.18-1.96,1.62-3.01.44,1.05.97,2.05,1.62,3.01l8.41,12.49v15.95c0,.73.59,1.32,1.32,1.32h14.78c.13,0,.26-.02.38-.06.12.04.25.06.38.06h5.57c.73,0,1.32-.59,1.32-1.32v-17.48c0-4.77-3.88-8.64-8.64-8.64ZM42.6,51.99c0,2.25-1.83,4.08-4.08,4.08s-4.08-1.83-4.08-4.08v-1.86c0-2.25,1.83-4.08,4.08-4.08s4.08,1.83,4.08,4.08v1.86ZM71.9,50.12c0-2.25,1.83-4.08,4.08-4.08s4.08,1.83,4.08,4.08v1.86c0,2.25-1.83,4.08-4.08,4.08s-4.08-1.83-4.08-4.08v-1.86ZM88.39,80.87h-3.69v-9.76c0-.73-.59-1.32-1.32-1.32s-1.32.59-1.32,1.32v9.76h-12.14v-15.03c0-.26-.08-.52-.22-.74l-8.63-12.82c-1.54-2.28-2.39-4.92-2.48-7.66l13.7,13.7s.03.03.05.05c.23.21.54.34.88.34h9.17c3.31,0,6,2.69,6,6v16.16h0Z"/>
        <path class="cls-1" d="M84.31,64.9c-.25-.25-.59-.39-.93-.39s-.69.14-.93.39c-.25.25-.39.59-.39.93s.14.69.39.93c.25.25.59.39.93.39s.69-.14.93-.39c.25-.25.39-.59.39-.93s-.14-.69-.39-.93Z"/>
        <path class="cls-1" d="M46.84,71.89c-.25-.25-.59-.39-.93-.39s-.69.14-.93.39-.39.59-.39.93.14.69.39.93c.25.25.59.39.93.39s.69-.14.93-.39c.25-.25.39-.59.39-.93s-.14-.69-.39-.93Z"/>
      </g>
    </g>
  </g>
</svg>