<?xml version="1.0" encoding="UTF-8"?>
<svg id="Layer_2" data-name="Layer 2" xmlns="http://www.w3.org/2000/svg" viewBox="0 0 102.44 102.44">
  <defs>
    <style>
      .cls-1 {
        fill: #fff;
      }

      .cls-2 {
        fill: #1e1b48;
      }
    </style>
  </defs>
  <g id="Layer_1-2" data-name="Layer 1">
    <circle class="cls-2" cx="51.22" cy="51.22" r="51.22"/>
    <g>
      <path class="cls-1" d="M39.66,60.01c1.75-1.75,1.75-4.59,0-6.34-.85-.85-1.97-1.31-3.17-1.31-.69,0-1.36.16-1.96.45-2.13-3.05-3.25-6.61-3.25-10.36,0-9.6,7.5-17.55,17.07-18.1.65-.04,1.15-.6,1.11-1.25-.04-.65-.6-1.15-1.25-1.11-10.82.63-19.3,9.61-19.3,20.46,0,4.33,1.32,8.44,3.83,11.93-1.15,1.74-.95,4.11.58,5.64.85.85,1.97,1.31,3.17,1.31s2.32-.47,3.17-1.31ZM34.99,55.34c.41-.41.96-.62,1.5-.62s1.09.21,1.5.62c.83.83.83,2.18,0,3-.83.83-2.18.83-3,0s-.83-2.18,0-3Z"/>
      <path class="cls-1" d="M67.61,62.87c-.75,0-1.45.19-2.06.54-.54-1.71-2.14-2.95-4.03-2.95-1.19,0-2.27.5-3.04,1.3-.21-.22-.45-.42-.71-.59,2.72-1.22,5.17-3.03,7.15-5.32,3.21-3.72,4.98-8.48,4.98-13.4,0-4.33-1.32-8.44-3.83-11.93,1.15-1.74.95-4.11-.58-5.64-1.75-1.75-4.59-1.75-6.34,0-1.75,1.75-1.75,4.59,0,6.34.87.87,2.02,1.31,3.17,1.31.67,0,1.35-.15,1.96-.45,2.13,3.05,3.25,6.62,3.25,10.37,0,8.54-5.8,15.75-13.97,17.66v-6.35c4.68-1.73,7.88-6.25,7.88-11.3,0-6.64-5.4-12.05-12.05-12.05s-12.05,5.4-12.05,12.05c0,2.62.83,5.11,2.39,7.21,1.37,1.83,3.26,3.24,5.38,4.05v17.36l-1.48-2.43c-1.25-2.05-3.85-2.71-5.92-1.51-1.97,1.14-2.74,3.64-1.75,5.7l4.4,8.89c.21.42.62.66,1.06.66.18,0,.35-.04.52-.12.58-.29.82-1,.53-1.58l-4.4-8.88c-.46-.94-.1-2.09.81-2.62.94-.54,2.16-.23,2.72.7l3.67,6.02c.28.45.82.66,1.33.52s.86-.61.86-1.14v-27.08c0-1.03.84-1.86,1.86-1.86s1.86.83,1.86,1.86v4.67s0,.02,0,.03v17.72c0,.65.53,1.18,1.18,1.18s1.18-.53,1.18-1.18v-5.93c0-1.03.83-1.86,1.86-1.86s1.86.84,1.86,1.86v6.36c0,.65.53,1.18,1.18,1.18s1.18-.53,1.18-1.18v-6.36c0-1.03.84-1.86,1.86-1.86s1.86.84,1.86,1.86v6.44c0,.65.53,1.18,1.18,1.18s1.18-.53,1.18-1.18v-4.02c0-1.03.84-1.86,1.86-1.86s1.86.84,1.86,1.86v14.1c0,.65.53,1.18,1.18,1.18s1.18-.53,1.18-1.18v-14.1c0-2.33-1.89-4.22-4.22-4.22ZM60.83,29.54c-.83-.83-.83-2.18,0-3,.41-.41.96-.62,1.5-.62s1.09.21,1.5.62c.83.83.83,2.18,0,3-.83.83-2.18.83-3,0ZM39.73,42.44c0-5.34,4.34-9.69,9.69-9.69s9.68,4.34,9.68,9.69c0,3.76-2.2,7.16-5.52,8.74v-3c0-.66-.15-1.29-.43-1.85,1.05-1.01,1.67-2.42,1.67-3.9,0-2.98-2.42-5.41-5.41-5.41s-5.41,2.42-5.41,5.41c0,1.44.59,2.82,1.59,3.83-.3.58-.46,1.23-.46,1.92v2.95c-3.29-1.61-5.41-4.94-5.41-8.69ZM47.22,44.55c-.54-.56-.85-1.31-.85-2.11,0-1.68,1.37-3.05,3.05-3.05s3.05,1.37,3.05,3.05c0,.81-.33,1.58-.89,2.15-.64-.4-1.4-.63-2.21-.63s-1.51.21-2.14.59Z"/>
      <path class="cls-1" d="M53.59,24.76c.31,0,.62-.13.83-.35.22-.22.35-.52.35-.83s-.13-.61-.35-.83c-.22-.22-.52-.35-.83-.35s-.61.13-.83.35-.35.52-.35.83.13.62.35.83c.22.22.52.35.83.35Z"/>
    </g>
  </g>
</svg>