<?xml version="1.0" encoding="UTF-8"?>
<svg id="Layer_2" data-name="Layer 2" xmlns="http://www.w3.org/2000/svg" viewBox="0 0 114.5 114.5">
  <defs>
    <style>
      .cls-1 {
        fill: #f2f2f2;
      }

      .cls-2 {
        fill: #1e1b48;
      }
    </style>
  </defs>
  <g id="Layer_1-2" data-name="Layer 1">
    <g>
      <circle class="cls-2" cx="57.25" cy="57.25" r="57.25"/>
      <g>
        <path class="cls-1" d="M84.54,56.74c.6-.89.95-1.97.95-3.12v-1.07c0-3.09-2.51-5.6-5.6-5.6-1.54,0-2.94.63-3.95,1.64-2.62-7.8-10.01-13.44-18.68-13.44s-16.06,5.64-18.68,13.44c-1.01-1.01-2.41-1.64-3.95-1.64-3.09,0-5.6,2.51-5.6,5.6v1.07c0,1.16.35,2.23.95,3.12-3.88.82-6.8,4.26-6.8,8.38v2.68c0,.74.6,1.33,1.33,1.33h6.92c.74,0,1.33-.6,1.33-1.33s-.6-1.33-1.33-1.33h-5.59v-1.35c0-3.26,2.65-5.9,5.9-5.9h6.3c.51,2.25,1.41,4.35,2.61,6.23l-15.19,15.19c-1.95,1.95-1.95,5.11,0,7.06.97.97,2.25,1.46,3.53,1.46s2.56-.49,3.53-1.46l8.37-8.37c.52-.52.52-1.36,0-1.88-.52-.52-1.36-.52-1.88,0l-8.37,8.37c-.91.91-2.38.91-3.29,0-.91-.91-.91-2.38,0-3.29l14.91-14.91c3.62,4.24,9,6.94,15,6.94,9.36,0,17.22-6.56,19.21-15.33h6.3c3.26,0,5.9,2.65,5.9,5.9v1.35h-12.51c-.74,0-1.33.6-1.33,1.33s.6,1.33,1.33,1.33h13.85c.74,0,1.33-.6,1.33-1.33v-2.68c0-4.12-2.92-7.57-6.8-8.38ZM37.56,53.62c0,1.62-1.32,2.94-2.94,2.94s-2.94-1.32-2.94-2.94v-1.07c0-1.62,1.32-2.94,2.94-2.94s2.94,1.32,2.94,2.94v1.07ZM57.25,71.89c-9.4,0-17.04-7.64-17.04-17.04s7.64-17.04,17.04-17.04,17.04,7.64,17.04,17.04-7.64,17.04-17.04,17.04ZM82.83,53.62c0,1.62-1.32,2.94-2.94,2.94s-2.94-1.32-2.94-2.94v-1.07c0-1.62,1.32-2.94,2.94-2.94s2.94,1.32,2.94,2.94v1.07Z"/>
        <path class="cls-1" d="M57.25,40.47c-7.93,0-14.38,6.45-14.38,14.38,0,4.12,1.74,7.83,4.52,10.46.05.05.1.1.15.14,2.56,2.35,5.97,3.78,9.71,3.78s7.15-1.43,9.71-3.78c.06-.04.11-.09.15-.14,2.78-2.62,4.52-6.34,4.52-10.46,0-7.93-6.45-14.38-14.38-14.38ZM57.25,66.57c-2.74,0-5.26-.94-7.26-2.52,1.41-2.68,4.17-4.36,7.26-4.36s5.84,1.68,7.26,4.36c-2,1.58-4.52,2.52-7.26,2.52ZM54.45,54.21v-1.03c0-1.55,1.26-2.81,2.81-2.81s2.81,1.26,2.81,2.81v1.03c0,1.55-1.26,2.81-2.81,2.81s-2.81-1.26-2.81-2.81ZM66.45,62.09c-1.22-1.95-3-3.43-5.09-4.28.85-.96,1.36-2.22,1.36-3.6v-1.03c0-3.02-2.45-5.47-5.47-5.47s-5.47,2.45-5.47,5.47v1.03c0,1.38.51,2.64,1.36,3.6-2.09.85-3.87,2.33-5.09,4.28-1.57-1.99-2.51-4.51-2.51-7.24,0-6.46,5.26-11.72,11.72-11.72s11.72,5.26,11.72,11.72c0,2.73-.94,5.25-2.51,7.24Z"/>
        <path class="cls-1" d="M44.45,73.88c-.25-.25-.59-.39-.94-.39s-.69.14-.94.39c-.25.25-.39.59-.39.94s.14.69.39.94c.25.25.59.39.94.39s.69-.14.94-.39c.25-.25.39-.59.39-.94s-.14-.69-.39-.94Z"/>
        <path class="cls-1" d="M57.28,21c-.74,0-1.33.6-1.33,1.33v4.53c0,.74.6,1.33,1.33,1.33s1.33-.6,1.33-1.33v-4.53c0-.74-.6-1.33-1.33-1.33Z"/>
        <path class="cls-1" d="M58.22,30.31c-.25-.25-.59-.39-.94-.39s-.69.14-.94.39-.39.59-.39.94.14.69.39.94c.25.25.59.39.94.39s.69-.14.94-.39c.25-.25.39-.59.39-.94s-.14-.69-.39-.94Z"/>
        <path class="cls-1" d="M68.57,26.22c-.52-.52-1.36-.52-1.88,0l-2.34,2.34c-.52.52-.52,1.36,0,1.88.26.26.6.39.94.39s.68-.13.94-.39l2.34-2.34c.52-.52.52-1.36,0-1.88Z"/>
        <path class="cls-1" d="M50.18,28.58l-2.36-2.36c-.52-.52-1.36-.52-1.88,0-.52.52-.52,1.36,0,1.88l2.36,2.36c.26.26.6.39.94.39s.68-.13.94-.39c.52-.52.52-1.36,0-1.88Z"/>
      </g>
    </g>
  </g>
</svg>