<?xml version="1.0" encoding="UTF-8"?>
<svg id="Layer_2" data-name="Layer 2" xmlns="http://www.w3.org/2000/svg" viewBox="0 0 264.41 129.24">
  <defs>
    <style>
      .cls-1 {
        fill: #f8cf1f;
      }

      .cls-2 {
        fill: #153c66;
      }
    </style>
  </defs>
  <g id="Layer_1-2" data-name="Layer 1">
    <g>
      <path class="cls-2" d="M2.73.36h2.74l2.09,9.28L10.17.36h2.31l2.63,9.28L17.18.36h2.74l-3.28,14.55h-2.65l-2.7-9.4-2.61,9.4h-2.63L2.73.36Z"/>
      <path class="cls-2" d="M43.71,7.68c0,4.28-3.34,7.58-7.52,7.58s-7.62-3.4-7.62-7.64,3.45-7.62,7.58-7.62,7.56,3.24,7.56,7.68ZM31.37,7.68c0,2.96,2.23,4.92,4.8,4.92s4.74-2.17,4.74-4.94-2.01-5.01-4.78-5.01c-2.61,0-4.76,2.03-4.76,5.03Z"/>
      <path class="cls-2" d="M53.98.36h3.38c1.84,0,3.14.22,4.11,1.18.73.71,1.18,1.8,1.18,3.04,0,1.91-.95,3.2-2.8,3.87l3.45,6.46h-3.02l-3.26-6.16h-.26v6.16h-2.78V.36ZM56.76,6.06h1.28c1.26,0,1.9-.51,1.9-1.5s-.67-1.48-1.99-1.48h-1.2v2.98Z"/>
      <path class="cls-2" d="M73.07.36h3.51c2.55,0,4.36.3,5.94,1.84,1.32,1.28,2.11,3.3,2.11,5.61,0,2.49-.93,4.56-2.49,5.78-1.66,1.3-3.38,1.32-5.51,1.32h-3.55V.36ZM75.84,3.08v9.12h1.46c1.52,0,2.59-.2,3.45-1.11.67-.73,1.07-1.91,1.07-3.32,0-3.04-1.68-4.68-4.84-4.68h-1.13Z"/>
      <path class="cls-2" d="M122.65,7.64c0,4.28-3.34,7.64-7.66,7.64s-7.68-3.51-7.68-7.58c0-4.34,3.36-7.7,7.56-7.7,4.42,0,7.78,3.3,7.78,7.64ZM108.83,7.7c0,3.59,2.84,6.16,6.12,6.16s6.18-2.59,6.18-6.24-2.96-6.2-6.18-6.2-6.12,2.55-6.12,6.28Z"/>
      <path class="cls-2" d="M133.05.36h7.3v1.42h-5.84v4.56h5.84v1.42h-5.84v7.15h-1.46V.36Z"/>
      <path class="cls-2" d="M164.78.36h2.72l3.36,10.15,3.4-10.15h2.68l2.45,14.55h-2.68l-1.56-9.2-3.1,9.2h-2.43l-3.06-9.2-1.6,9.2h-2.7l2.51-14.55Z"/>
      <path class="cls-2" d="M203.55,7.68c0,4.28-3.34,7.58-7.52,7.58s-7.62-3.4-7.62-7.64,3.45-7.62,7.58-7.62,7.56,3.24,7.56,7.68ZM191.2,7.68c0,2.96,2.23,4.92,4.8,4.92s4.74-2.17,4.74-4.94-2.01-5.01-4.78-5.01c-2.61,0-4.76,2.03-4.76,5.03Z"/>
      <path class="cls-2" d="M213.53.36h2.78v9.85c0,1.58.77,2.39,2.11,2.39.79,0,1.5-.32,1.84-.87.3-.47.34-1.14.34-1.91V.36h2.78v9.26c0,1.6-.08,2.82-1.18,4.09-.93,1.07-2.15,1.54-3.73,1.54-1.5,0-2.69-.43-3.61-1.38-1.18-1.22-1.34-2.53-1.34-4.42V.36Z"/>
      <path class="cls-2" d="M232.66.36h8.04v2.72h-2.67v11.84h-2.78V3.08h-2.59V.36Z"/>
      <path class="cls-2" d="M250.13.36h2.78v5.47h4.9V.36h2.78v14.55h-2.78v-6.36h-4.9v6.36h-2.78V.36Z"/>
      <path class="cls-2" d="M237.6,30.27c-6.38,0-11.89,1.53-16.09,4.45-4.2-2.92-9.68-4.45-16.02-4.45-16.79,0-26.81,9.42-26.81,25.2v68.15h20.69V55.91c0-3.84.45-7.6,5.82-7.6,3.63,0,6.04,1.29,6.04,7.6v67.72h20.69V55.91c0-6.33,2.26-7.6,5.9-7.6s5.9,1.27,5.9,7.6v67.72h20.69V55.47c0-15.78-10.02-25.2-26.81-25.2Z"/>
      <path class="cls-2" d="M65.04,30.27v67.72c0,3.84-.45,7.6-5.82,7.6-3.63,0-6.04-1.29-6.04-7.6V30.27h-20.69v67.72c0,6.33-2.26,7.6-5.9,7.6s-5.9-1.27-5.9-7.6V30.27H0v68.15c0,15.78,10.02,25.2,26.81,25.2,6.39,0,11.89-1.53,16.09-4.45,4.2,2.92,9.68,4.45,16.02,4.45,16.79,0,26.81-9.42,26.81-25.2V30.27h-20.69Z"/>
      <g>
        <path class="cls-1" d="M125.13,24.66h-.18c-.17,0-.33,0-.5,0-6.93,0-13.37,1.25-19.14,3.7-5.79,2.46-10.87,6.02-15.12,10.59-4.24,4.56-7.58,10.14-9.92,16.59-2.33,6.42-3.51,13.69-3.51,21.63s1.18,14.58,3.51,20.91c2.34,6.34,5.65,11.89,9.84,16.5,4.21,4.62,9.29,8.26,15.11,10.82,5.82,2.56,12.29,3.85,19.22,3.85.17,0,.34,0,.5,0h.18c.84-.01,1.51-.7,1.51-1.54v-.88c0-.41-.2-.81-.49-1.1-.3-.29-.71-.45-1.14-.43-.19,0-.37,0-.56,0-4.82,0-9.14-1.35-12.84-4.02-3.79-2.73-7.01-6.38-9.56-10.84-2.59-4.52-4.57-9.76-5.88-15.57-1.33-5.84-2-11.89-2-17.99,0-6.49.67-12.76,2-18.65,1.32-5.86,3.29-11.06,5.88-15.48,2.54-4.35,5.75-7.85,9.52-10.38,3.71-2.49,8.04-3.76,12.88-3.76.19,0,.37,0,.56,0,0,0,.06,0,.06,0,.41,0,.81-.15,1.11-.44.3-.29.46-.69.46-1.1v-.88c0-.84-.67-1.52-1.51-1.54Z"/>
        <path class="cls-1" d="M184.02,55.82c-2.34-6.34-5.65-11.89-9.84-16.5-4.21-4.62-9.29-8.26-15.11-10.82-5.82-2.56-12.29-3.85-19.22-3.85-.17,0-.34,0-.5,0h-.18c-.84.01-1.51.7-1.51,1.54v.88c0,.41.2.81.49,1.1.3.29.73.45,1.14.43.19,0,.37,0,.56,0,4.82,0,9.14,1.35,12.84,4.02,3.79,2.73,7.01,6.38,9.56,10.84,2.59,4.52,4.57,9.76,5.88,15.57,1.33,5.84,2,11.89,2,17.99,0,6.49-.67,12.76-2,18.65-1.32,5.86-3.29,11.06-5.88,15.48-2.54,4.35-5.75,7.85-9.52,10.38-3.71,2.49-8.04,3.76-12.88,3.76-.2,0-.39,0-.59,0h-.03c-.41-.02-.81.15-1.11.44s-.46.69-.46,1.1v.88c0,.84.67,1.52,1.51,1.54h.16c.17,0,.34,0,.52,0,6.93,0,13.37-1.25,19.14-3.7,5.79-2.46,10.87-6.02,15.12-10.59,4.24-4.56,7.58-10.14,9.92-16.59,2.33-6.42,3.51-13.69,3.51-21.63s-1.18-14.58-3.51-20.91Z"/>
      </g>
    </g>
  </g>
</svg>